<?xml version="1.0" encoding="UTF-8"?>
<!DOCTYPE svg PUBLIC "-//W3C//DTD SVG 1.1//EN" "http://www.w3.org/Graphics/SVG/1.1/DTD/svg11.dtd">
<svg xmlns="http://www.w3.org/2000/svg" version="1.1" width="497px" height="502px" style="shape-rendering:geometricPrecision; text-rendering:geometricPrecision; image-rendering:optimizeQuality; fill-rule:evenodd; clip-rule:evenodd" xmlns:xlink="http://www.w3.org/1999/xlink">
<g><path style="opacity:0.03" fill="#eaf5f1" d="M 367.5,0.5 C 367.5,0.166667 367.5,-0.166667 367.5,-0.5C 371.833,-0.5 376.167,-0.5 380.5,-0.5C 381.833,0.166667 383.167,0.833333 384.5,1.5C 382.5,1.5 380.5,1.5 378.5,1.5C 375.038,0.518362 371.371,0.185029 367.5,0.5 Z"/></g>
<g><path style="opacity:0.776" fill="#95d5bf" d="M 367.5,0.5 C 371.371,0.185029 375.038,0.518362 378.5,1.5C 372.804,1.44701 367.138,1.78034 361.5,2.5C 363.214,1.26162 365.214,0.594955 367.5,0.5 Z"/></g>
<g><path style="opacity:1" fill="#30b98a" d="M 378.5,1.5 C 380.5,1.5 382.5,1.5 384.5,1.5C 385.78,2.93127 387.447,3.59794 389.5,3.5C 391.153,3.6596 392.486,4.32627 393.5,5.5C 394.035,7.44563 395.368,8.44563 397.5,8.5C 397.973,9.90632 398.973,10.573 400.5,10.5C 400.738,12.4044 401.738,13.7377 403.5,14.5C 403.738,16.4044 404.738,17.7377 406.5,18.5C 407.326,21.4848 408.659,24.1515 410.5,26.5C 412.418,36.4814 411.418,46.148 407.5,55.5C 407.672,56.4916 407.338,57.1583 406.5,57.5C 405.094,57.9731 404.427,58.9731 404.5,60.5C 404.5,61.1667 404.167,61.5 403.5,61.5C 401.167,63.1667 399.167,65.1667 397.5,67.5C 397.5,68.1667 397.167,68.5 396.5,68.5C 394.973,68.427 393.973,69.0937 393.5,70.5C 392.486,71.6737 391.153,72.3404 389.5,72.5C 385.557,73.4855 381.557,74.1522 377.5,74.5C 373.818,74.6653 370.152,74.4986 366.5,74C 363.647,72.5699 360.647,71.7366 357.5,71.5C 356.508,71.6716 355.842,71.3382 355.5,70.5C 355.027,69.0937 354.027,68.427 352.5,68.5C 351.089,66.086 349.089,64.4194 346.5,63.5C 346.573,61.9731 345.906,60.9731 344.5,60.5C 343.833,60.5 343.5,60.1667 343.5,59.5C 343.573,57.9731 342.906,56.9731 341.5,56.5C 340.662,56.1583 340.328,55.4916 340.5,54.5C 337.887,46.4101 336.887,38.0767 337.5,29.5C 337.5,29.1667 337.5,28.8333 337.5,28.5C 338.931,27.2196 339.598,25.5529 339.5,23.5C 339.328,22.5084 339.662,21.8417 340.5,21.5C 341.906,21.0269 342.573,20.0269 342.5,18.5C 342.738,16.5956 343.738,15.2623 345.5,14.5C 346.906,14.0269 347.573,13.0269 347.5,11.5C 349.749,10.9202 351.415,9.58689 352.5,7.5C 354.027,7.57298 355.027,6.90632 355.5,5.5C 355.842,4.66175 356.508,4.32842 357.5,4.5C 359.153,4.3404 360.486,3.67373 361.5,2.5C 367.138,1.78034 372.804,1.44701 378.5,1.5 Z"/></g>
<g><path style="opacity:0.11" fill="#d5efe6" d="M 384.5,1.5 C 386.553,1.40206 388.22,2.06873 389.5,3.5C 387.447,3.59794 385.78,2.93127 384.5,1.5 Z"/></g>
<g><path style="opacity:0.439" fill="#c6eadd" d="M 361.5,2.5 C 360.486,3.67373 359.153,4.3404 357.5,4.5C 358.287,2.89578 359.62,2.22911 361.5,2.5 Z"/></g>
<g><path style="opacity:0.529" fill="#b8e2d3" d="M 355.5,5.5 C 355.027,6.90632 354.027,7.57298 352.5,7.5C 352.973,6.09368 353.973,5.42702 355.5,5.5 Z"/></g>
<g><path style="opacity:0.863" fill="#a5dbc7" d="M 393.5,5.5 C 395.23,6.02561 396.564,7.02561 397.5,8.5C 395.368,8.44563 394.035,7.44563 393.5,5.5 Z"/></g>
<g><path style="opacity:0.408" fill="#b4e1d1" d="M 146.5,8.5 C 141.489,8.33407 136.489,8.50074 131.5,9C 128.28,10.3524 124.947,11.1857 121.5,11.5C 129.502,7.5635 137.835,6.5635 146.5,8.5 Z"/></g>
<g><path style="opacity:0.039" fill="#d4eadc" d="M 251.5,8.5 C 256.65,7.34926 261.984,7.18259 267.5,8C 270.476,8.70477 273.142,9.87143 275.5,11.5C 267.734,8.91358 259.734,7.91358 251.5,8.5 Z"/></g>
<g><path style="opacity:1" fill="#2eb98a" d="M 146.5,8.5 C 149.939,10.2043 153.605,11.5376 157.5,12.5C 157.973,13.9063 158.973,14.573 160.5,14.5C 161.262,16.2624 162.596,17.2624 164.5,17.5C 164.5,18.8333 165.167,19.5 166.5,19.5C 166.738,21.4044 167.738,22.7377 169.5,23.5C 169.427,25.0269 170.094,26.0269 171.5,26.5C 171.157,28.4832 171.824,29.8166 173.5,30.5C 175.702,39.4131 176.036,48.4131 174.5,57.5C 172.659,59.8485 171.326,62.5152 170.5,65.5C 169.094,65.9731 168.427,66.9731 168.5,68.5C 167.167,69.1667 166.167,70.1667 165.5,71.5C 164.5,71.8333 163.833,72.5 163.5,73.5C 163.167,74.5 162.5,75.1667 161.5,75.5C 159.973,75.427 158.973,76.0937 158.5,77.5C 156.847,77.6596 155.514,78.3263 154.5,79.5C 152.302,79.1201 150.635,79.7868 149.5,81.5C 140.39,81.8809 131.39,81.2142 122.5,79.5C 122.027,78.0937 121.027,77.427 119.5,77.5C 118.738,75.7376 117.404,74.7376 115.5,74.5C 113.833,72.1667 111.833,70.1667 109.5,68.5C 108.833,68.5 108.5,68.1667 108.5,67.5C 108.573,65.9731 107.906,64.9731 106.5,64.5C 106.34,62.847 105.674,61.5137 104.5,60.5C 103.662,60.1583 103.328,59.4916 103.5,58.5C 102.475,50.8613 102.309,43.1947 103,35.5C 104.707,33.0912 105.54,30.4245 105.5,27.5C 106.906,27.0269 107.573,26.0269 107.5,24.5C 109.587,23.4154 110.92,21.7488 111.5,19.5C 114.089,18.5806 116.089,16.914 117.5,14.5C 119.404,14.2624 120.738,13.2624 121.5,11.5C 124.947,11.1857 128.28,10.3524 131.5,9C 136.489,8.50074 141.489,8.33407 146.5,8.5 Z"/></g>
<g><path style="opacity:0.004" fill="#cfede2" d="M 146.5,8.5 C 150.708,8.677 154.374,10.0103 157.5,12.5C 153.605,11.5376 149.939,10.2043 146.5,8.5 Z"/></g>
<g><path style="opacity:1" fill="#6ec493" d="M 251.5,8.5 C 259.734,7.91358 267.734,8.91358 275.5,11.5C 275.804,12.1499 276.137,12.8165 276.5,13.5C 279.423,14.4476 282.089,15.7809 284.5,17.5C 285.483,20.6691 287.483,23.0024 290.5,24.5C 291.338,24.8417 291.672,25.5084 291.5,26.5C 291.66,28.153 292.326,29.4863 293.5,30.5C 293.259,32.8984 293.926,34.8984 295.5,36.5C 296.826,47.5214 294.826,57.8548 289.5,67.5C 289.5,68.1667 289.167,68.5 288.5,68.5C 286.167,70.1667 284.167,72.1667 282.5,74.5C 282.5,75.1667 282.167,75.5 281.5,75.5C 279.973,75.427 278.973,76.0937 278.5,77.5C 276.847,77.6596 275.514,78.3263 274.5,79.5C 271.426,79.8726 268.426,80.5392 265.5,81.5C 258.045,81.8482 250.712,81.1815 243.5,79.5C 242.486,78.3263 241.153,77.6596 239.5,77.5C 239.027,76.0937 238.027,75.427 236.5,75.5C 234.118,72.4517 231.452,69.7851 228.5,67.5C 226.101,62.7027 224.267,57.7027 223,52.5C 222.092,45.023 222.592,37.6897 224.5,30.5C 226.245,28.9674 227.245,26.9674 227.5,24.5C 231.5,21.1667 235.167,17.5 238.5,13.5C 238.842,12.6618 239.508,12.3284 240.5,12.5C 244.395,11.5376 248.061,10.2043 251.5,8.5 Z"/></g>
<g><path style="opacity:0.369" fill="#b8e3d4" d="M 352.5,7.5 C 351.415,9.58689 349.749,10.9202 347.5,11.5C 348.585,9.41311 350.251,8.07978 352.5,7.5 Z"/></g>
<g><path style="opacity:0.008" fill="#dff0ea" d="M 397.5,8.5 C 399.027,8.42702 400.027,9.09368 400.5,10.5C 398.973,10.573 397.973,9.90632 397.5,8.5 Z"/></g>
<g><path style="opacity:0.71" fill="#c0e4ce" d="M 251.5,8.5 C 248.061,10.2043 244.395,11.5376 240.5,12.5C 243.626,10.0103 247.292,8.677 251.5,8.5 Z"/></g>
<g><path style="opacity:0.518" fill="#bde6d7" d="M 400.5,10.5 C 402.262,11.2623 403.262,12.5956 403.5,14.5C 401.738,13.7377 400.738,12.4044 400.5,10.5 Z"/></g>
<g><path style="opacity:0.38" fill="#bce6d7" d="M 121.5,11.5 C 120.738,13.2624 119.404,14.2624 117.5,14.5C 118.262,12.7376 119.596,11.7376 121.5,11.5 Z"/></g>
<g><path style="opacity:0.004" fill="#d7ede5" d="M 157.5,12.5 C 159.027,12.427 160.027,13.0937 160.5,14.5C 158.973,14.573 157.973,13.9063 157.5,12.5 Z"/></g>
<g><path style="opacity:0.004" fill="#cae7d6" d="M 275.5,11.5 C 279.37,12.2633 282.37,14.2633 284.5,17.5C 282.089,15.7809 279.423,14.4476 276.5,13.5C 276.137,12.8165 275.804,12.1499 275.5,11.5 Z"/></g>
<g><path style="opacity:0.467" fill="#aaddcb" d="M 347.5,11.5 C 347.573,13.0269 346.906,14.0269 345.5,14.5C 345.427,12.9731 346.094,11.9731 347.5,11.5 Z"/></g>
<g><path style="opacity:0.008" fill="#d7efe6" d="M 160.5,14.5 C 162.404,14.7376 163.738,15.7376 164.5,17.5C 162.596,17.2624 161.262,16.2624 160.5,14.5 Z"/></g>
<g><path style="opacity:0.435" fill="#b8e5d5" d="M 403.5,14.5 C 405.262,15.2623 406.262,16.5956 406.5,18.5C 404.738,17.7377 403.738,16.4044 403.5,14.5 Z"/></g>
<g><path style="opacity:0.82" fill="#8fd2bb" d="M 117.5,14.5 C 116.089,16.914 114.089,18.5806 111.5,19.5C 112.911,17.086 114.911,15.4194 117.5,14.5 Z"/></g>
<g><path style="opacity:0.624" fill="#c5e4d1" d="M 238.5,13.5 C 235.167,17.5 231.5,21.1667 227.5,24.5C 230.167,19.8333 233.833,16.1667 238.5,13.5 Z"/></g>
<g><path style="opacity:0.561" fill="#bbe3d5" d="M 164.5,17.5 C 165.5,17.8333 166.167,18.5 166.5,19.5C 165.167,19.5 164.5,18.8333 164.5,17.5 Z"/></g>
<g><path style="opacity:0.761" fill="#a7ddca" d="M 111.5,19.5 C 110.92,21.7488 109.587,23.4154 107.5,24.5C 108.08,22.2512 109.413,20.5846 111.5,19.5 Z"/></g>
<g><path style="opacity:0.729" fill="#b8dec7" d="M 284.5,17.5 C 287.243,19.2393 289.243,21.5726 290.5,24.5C 287.483,23.0024 285.483,20.6691 284.5,17.5 Z"/></g>
<g><path style="opacity:0.208" fill="#bee9d9" d="M 342.5,18.5 C 342.573,20.0269 341.906,21.0269 340.5,21.5C 340.427,19.9731 341.094,18.9731 342.5,18.5 Z"/></g>
<g><path style="opacity:0.047" fill="#daf0e8" d="M 406.5,18.5 C 408.873,20.5792 410.206,23.2459 410.5,26.5C 408.659,24.1515 407.326,21.4848 406.5,18.5 Z"/></g>
<g><path style="opacity:0.31" fill="#c6eadd" d="M 166.5,19.5 C 168.262,20.2623 169.262,21.5956 169.5,23.5C 167.738,22.7377 166.738,21.4044 166.5,19.5 Z"/></g>
<g><path style="opacity:0.122" fill="#d3f0e5" d="M 169.5,23.5 C 170.906,23.9731 171.573,24.9731 171.5,26.5C 170.094,26.0269 169.427,25.0269 169.5,23.5 Z"/></g>
<g><path style="opacity:0.016" fill="#e6f4ef" d="M 339.5,23.5 C 339.598,25.5529 338.931,27.2196 337.5,28.5C 337.402,26.4471 338.069,24.7804 339.5,23.5 Z"/></g>
<g><path style="opacity:0.094" fill="#d5efe5" d="M 107.5,24.5 C 107.573,26.0269 106.906,27.0269 105.5,27.5C 105.427,25.9731 106.094,24.9731 107.5,24.5 Z"/></g>
<g><path style="opacity:0.839" fill="#c2e1cf" d="M 227.5,24.5 C 227.245,26.9674 226.245,28.9674 224.5,30.5C 224.461,27.911 225.461,25.911 227.5,24.5 Z"/></g>
<g><path style="opacity:0.063" fill="#e2f1e7" d="M 291.5,26.5 C 293.104,27.287 293.771,28.6203 293.5,30.5C 292.326,29.4863 291.66,28.153 291.5,26.5 Z"/></g>
<g><path style="opacity:0.89" fill="#99d7c0" d="M 171.5,26.5 C 172.674,27.5137 173.34,28.847 173.5,30.5C 171.824,29.8166 171.157,28.4832 171.5,26.5 Z"/></g>
<g><path style="opacity:0.325" fill="#cdebe1" d="M 457.5,32.5 C 454.549,29.8049 451.882,30.1382 449.5,33.5C 450.121,30.8787 451.788,29.212 454.5,28.5C 456.288,29.2826 457.288,30.6159 457.5,32.5 Z"/></g>
<g><path style="opacity:0.69" fill="#c3e7da" d="M 173.5,30.5 C 178.064,39.0711 178.398,48.0711 174.5,57.5C 176.036,48.4131 175.702,39.4131 173.5,30.5 Z"/></g>
<g><path style="opacity:1" fill="#2eb98a" d="M 457.5,32.5 C 458.885,53.8538 458.552,75.1871 456.5,96.5C 454.922,101.583 454.255,106.916 454.5,112.5C 452.946,116.567 452.28,120.9 452.5,125.5C 447.32,152.567 441.32,179.567 434.5,206.5C 432.102,210.403 430.769,214.736 430.5,219.5C 429.069,220.78 428.402,222.447 428.5,224.5C 426.926,226.102 426.259,228.102 426.5,230.5C 424.552,232.32 423.552,234.654 423.5,237.5C 423.672,238.492 423.338,239.158 422.5,239.5C 421.069,240.78 420.402,242.447 420.5,244.5C 420.672,245.492 420.338,246.158 419.5,246.5C 417.992,248.181 416.992,250.181 416.5,252.5C 416.672,253.492 416.338,254.158 415.5,254.5C 413.412,256.336 412.079,258.669 411.5,261.5C 410.094,261.973 409.427,262.973 409.5,264.5C 408.094,264.973 407.427,265.973 407.5,267.5C 407.5,268.167 407.167,268.5 406.5,268.5C 404.413,269.585 403.08,271.251 402.5,273.5C 401.833,274.833 400.833,275.833 399.5,276.5C 397.596,276.738 396.262,277.738 395.5,279.5C 390.43,281.766 385.097,282.766 379.5,282.5C 377.485,281.076 375.152,280.41 372.5,280.5C 372.027,279.094 371.027,278.427 369.5,278.5C 368.738,276.738 367.404,275.738 365.5,275.5C 364.5,275.167 363.833,274.5 363.5,273.5C 363.167,272.5 362.5,271.833 361.5,271.5C 360.5,269.833 359.167,268.5 357.5,267.5C 356.5,267.167 355.833,266.5 355.5,265.5C 355.573,263.973 354.906,262.973 353.5,262.5C 352.833,262.5 352.5,262.167 352.5,261.5C 351.544,258.561 349.877,256.228 347.5,254.5C 346.662,254.158 346.328,253.492 346.5,252.5C 346.573,250.973 345.906,249.973 344.5,249.5C 344.25,247.326 343.25,245.659 341.5,244.5C 338.367,236.9 334.7,229.567 330.5,222.5C 330.598,220.447 329.931,218.78 328.5,217.5C 328.598,215.447 327.931,213.78 326.5,212.5C 325.326,211.486 324.66,210.153 324.5,208.5C 324.741,206.102 324.074,204.102 322.5,202.5C 313.437,176.475 306.937,149.808 303,122.5C 302.5,114.173 302.334,105.84 302.5,97.5C 303.007,90.1086 305.34,83.442 309.5,77.5C 311.027,77.573 312.027,76.9063 312.5,75.5C 315.5,74.1667 318.5,74.1667 321.5,75.5C 323.214,76.7384 325.214,77.405 327.5,77.5C 328.78,78.9313 330.447,79.5979 332.5,79.5C 333.492,79.3284 334.158,79.6618 334.5,80.5C 335.514,81.6737 336.847,82.3404 338.5,82.5C 339.492,82.3284 340.158,82.6618 340.5,83.5C 341.514,84.6737 342.847,85.3404 344.5,85.5C 360.074,94.5555 376.407,96.5555 393.5,91.5C 396.01,91.9465 398.01,91.2798 399.5,89.5C 402.216,89.6138 404.216,88.6138 405.5,86.5C 407.483,86.8432 408.817,86.1765 409.5,84.5C 411.404,84.2624 412.738,83.2624 413.5,81.5C 415.404,81.2624 416.738,80.2624 417.5,78.5C 419.5,78.5 420.5,77.5 420.5,75.5C 422.167,73.1667 424.167,71.1667 426.5,69.5C 428.587,68.4154 429.92,66.7488 430.5,64.5C 430.328,63.5084 430.662,62.8417 431.5,62.5C 433.262,61.7377 434.262,60.4044 434.5,58.5C 435.906,58.0269 436.573,57.0269 436.5,55.5C 438.408,54.5144 439.408,52.8477 439.5,50.5C 440.906,50.0269 441.573,49.0269 441.5,47.5C 441.992,45.1815 442.992,43.1815 444.5,41.5C 445.906,41.0269 446.573,40.0269 446.5,38.5C 446.328,37.5084 446.662,36.8417 447.5,36.5C 448.906,36.0269 449.573,35.0269 449.5,33.5C 451.882,30.1382 454.549,29.8049 457.5,32.5 Z"/></g>
<g><path style="opacity:0.482" fill="#c2e3ce" d="M 293.5,30.5 C 295.074,32.1016 295.741,34.1016 295.5,36.5C 293.926,34.8984 293.259,32.8984 293.5,30.5 Z"/></g>
<g><path style="opacity:0.078" fill="#dbf3eb" d="M 449.5,33.5 C 449.573,35.0269 448.906,36.0269 447.5,36.5C 447.427,34.9731 448.094,33.9731 449.5,33.5 Z"/></g>
<g><path style="opacity:0.129" fill="#dcf0e9" d="M 64.5,41.5 C 63.0384,40.5423 61.7051,39.3756 60.5,38C 59.0715,37.4209 57.7382,37.5876 56.5,38.5C 60.2823,35.4814 62.949,36.4814 64.5,41.5 Z"/></g>
<g><path style="opacity:0.225" fill="#d3eee5" d="M 337.5,29.5 C 336.887,38.0767 337.887,46.4101 340.5,54.5C 338.554,52.266 337.387,49.5994 337,46.5C 336.182,40.6513 336.348,34.9846 337.5,29.5 Z"/></g>
<g><path style="opacity:1" fill="#2fb98a" d="M 64.5,41.5 C 65.3382,41.8417 65.6716,42.5084 65.5,43.5C 65.6596,45.153 66.3263,46.4863 67.5,47.5C 67.427,49.0269 68.0937,50.0269 69.5,50.5C 69.427,52.0269 70.0937,53.0269 71.5,53.5C 72.6737,54.5137 73.3404,55.847 73.5,57.5C 73.427,59.0269 74.0937,60.0269 75.5,60.5C 76.3382,60.8417 76.6716,61.5084 76.5,62.5C 76.427,64.0269 77.0937,65.0269 78.5,65.5C 78.427,67.0269 79.0937,68.0269 80.5,68.5C 80.7376,70.4044 81.7376,71.7377 83.5,72.5C 83.7376,74.4044 84.7376,75.7377 86.5,76.5C 88.8333,78.1667 90.8333,80.1667 92.5,82.5C 92.5246,85.179 93.858,86.5123 96.5,86.5C 97.0347,88.4456 98.368,89.4456 100.5,89.5C 102.027,89.427 103.027,90.0937 103.5,91.5C 104.659,93.2503 106.326,94.2503 108.5,94.5C 109.514,95.6737 110.847,96.3404 112.5,96.5C 115.084,98.4725 118.084,99.4725 121.5,99.5C 129.63,101.693 137.963,102.026 146.5,100.5C 149.152,100.59 151.485,99.9238 153.5,98.5C 154.209,97.596 155.209,97.2627 156.5,97.5C 158.698,97.8799 160.365,97.2132 161.5,95.5C 163.698,95.8799 165.365,95.2132 166.5,93.5C 167.514,92.3263 168.847,91.6596 170.5,91.5C 173.577,91.821 175.91,90.821 177.5,88.5C 179.153,88.3404 180.486,87.6737 181.5,86.5C 185.327,86.2484 188.66,84.9151 191.5,82.5C 195.833,80.8766 199.833,81.5432 203.5,84.5C 203.738,86.4044 204.738,87.7377 206.5,88.5C 207.959,92.0457 209.126,95.7124 210,99.5C 211.373,118.361 210.039,137.027 206,155.5C 202.653,169.222 199.153,182.889 195.5,196.5C 195.405,198.786 194.738,200.786 193.5,202.5C 191.733,204.792 190.733,207.458 190.5,210.5C 189.069,211.78 188.402,213.447 188.5,215.5C 185.459,221.606 182.793,227.939 180.5,234.5C 178.341,240.151 175.674,245.484 172.5,250.5C 171.094,250.973 170.427,251.973 170.5,253.5C 170.672,254.492 170.338,255.158 169.5,255.5C 168.094,255.973 167.427,256.973 167.5,258.5C 167.573,260.027 166.906,261.027 165.5,261.5C 164.094,261.973 163.427,262.973 163.5,264.5C 162.094,264.973 161.427,265.973 161.5,267.5C 161.5,268.167 161.167,268.5 160.5,268.5C 159.094,268.973 158.427,269.973 158.5,271.5C 158.167,272.5 157.5,273.167 156.5,273.5C 155.094,273.973 154.427,274.973 154.5,276.5C 153.167,278.5 151.5,280.167 149.5,281.5C 147.596,281.738 146.262,282.738 145.5,284.5C 143.973,284.427 142.973,285.094 142.5,286.5C 141.486,287.674 140.153,288.34 138.5,288.5C 132.508,289.774 126.508,289.774 120.5,288.5C 120.027,287.094 119.027,286.427 117.5,286.5C 116.089,284.086 114.089,282.419 111.5,281.5C 110.5,281.167 109.833,280.5 109.5,279.5C 108.864,277.205 107.531,275.539 105.5,274.5C 105.573,272.973 104.906,271.973 103.5,271.5C 102.094,271.027 101.427,270.027 101.5,268.5C 101.646,265.229 100.312,262.895 97.5,261.5C 96.3263,260.486 95.6596,259.153 95.5,257.5C 95.3404,255.847 94.6737,254.514 93.5,253.5C 93.2927,250.759 92.2927,248.426 90.5,246.5C 88.9348,244.491 87.9348,242.157 87.5,239.5C 87.5979,237.447 86.9313,235.78 85.5,234.5C 85.4725,231.084 84.4725,228.084 82.5,225.5C 82.7406,223.102 82.0739,221.102 80.5,219.5C 80.4725,216.084 79.4725,213.084 77.5,210.5C 77.5682,206.43 76.5682,202.763 74.5,199.5C 73.5655,198.432 73.2322,197.099 73.5,195.5C 73.7062,192.505 73.0395,189.838 71.5,187.5C 70.5489,186.081 70.2155,184.415 70.5,182.5C 70.4977,178.126 69.4977,174.126 67.5,170.5C 63.211,144.749 59.211,119.083 55.5,93.5C 54.914,77.84 54.5807,62.1733 54.5,46.5C 55.7682,44.0948 56.4349,41.4282 56.5,38.5C 57.7382,37.5876 59.0715,37.4209 60.5,38C 61.7051,39.3756 63.0384,40.5423 64.5,41.5 Z"/></g>
<g><path style="opacity:0.278" fill="#bfe5d7" d="M 105.5,27.5 C 105.54,30.4245 104.707,33.0912 103,35.5C 102.309,43.1947 102.475,50.8613 103.5,58.5C 100.213,50.8069 99.7131,42.8069 102,34.5C 102.67,31.8261 103.837,29.4927 105.5,27.5 Z"/></g>
<g><path style="opacity:0.129" fill="#d5eee5" d="M 446.5,38.5 C 446.573,40.0269 445.906,41.0269 444.5,41.5C 444.427,39.9731 445.094,38.9731 446.5,38.5 Z"/></g>
<g><path style="opacity:0.251" fill="#bae5d6" d="M 56.5,38.5 C 56.4349,41.4282 55.7682,44.0948 54.5,46.5C 54.2938,43.5049 54.9605,40.8383 56.5,38.5 Z"/></g>
<g><path style="opacity:0.59" fill="#c4e3d1" d="M 224.5,30.5 C 222.592,37.6897 222.092,45.023 223,52.5C 224.267,57.7027 226.101,62.7027 228.5,67.5C 223.377,60.6336 220.71,52.8003 220.5,44C 220.776,39.0645 222.11,34.5645 224.5,30.5 Z"/></g>
<g><path style="opacity:0.055" fill="#daf1e9" d="M 65.5,43.5 C 67.1042,44.287 67.7709,45.6203 67.5,47.5C 66.3263,46.4863 65.6596,45.153 65.5,43.5 Z"/></g>
<g><path style="opacity:0.027" fill="#d6eee5" d="M 410.5,26.5 C 413.381,35.8725 412.881,45.2058 409,54.5C 408.617,55.056 408.117,55.3893 407.5,55.5C 411.418,46.148 412.418,36.4814 410.5,26.5 Z"/></g>
<g><path style="opacity:0.173" fill="#cdede3" d="M 67.5,47.5 C 68.9063,47.9731 69.573,48.9731 69.5,50.5C 68.0937,50.0269 67.427,49.0269 67.5,47.5 Z"/></g>
<g><path style="opacity:0.169" fill="#c7e8dd" d="M 441.5,47.5 C 441.573,49.0269 440.906,50.0269 439.5,50.5C 439.427,48.9731 440.094,47.9731 441.5,47.5 Z"/></g>
<g><path style="opacity:0.102" fill="#dcf2ea" d="M 69.5,50.5 C 70.9063,50.9731 71.573,51.9731 71.5,53.5C 70.0937,53.0269 69.427,52.0269 69.5,50.5 Z"/></g>
<g><path style="opacity:0.894" fill="#a0dbc5" d="M 439.5,50.5 C 439.408,52.8477 438.408,54.5144 436.5,55.5C 436.75,53.326 437.75,51.6594 439.5,50.5 Z"/></g>
<g><path style="opacity:0.008" fill="#d7ecdf" d="M 295.5,36.5 C 296.268,37.2625 296.768,38.2625 297,39.5C 298.224,49.9462 295.724,59.2795 289.5,67.5C 294.826,57.8548 296.826,47.5214 295.5,36.5 Z"/></g>
<g><path style="opacity:0.012" fill="#d3eee5" d="M 341.5,56.5 C 342.906,56.9731 343.573,57.9731 343.5,59.5C 342.094,59.0269 341.427,58.0269 341.5,56.5 Z"/></g>
<g><path style="opacity:0.169" fill="#cbece1" d="M 436.5,55.5 C 436.573,57.0269 435.906,58.0269 434.5,58.5C 434.427,56.9731 435.094,55.9731 436.5,55.5 Z"/></g>
<g><path style="opacity:0.008" fill="#d7eee6" d="M 406.5,57.5 C 406.573,59.0269 405.906,60.0269 404.5,60.5C 404.427,58.9731 405.094,57.9731 406.5,57.5 Z"/></g>
<g><path style="opacity:0.235" fill="#c9eadf" d="M 73.5,57.5 C 74.9063,57.9731 75.573,58.9731 75.5,60.5C 74.0937,60.0269 73.427,59.0269 73.5,57.5 Z"/></g>
<g><path style="opacity:0.345" fill="#bee8d9" d="M 434.5,58.5 C 434.262,60.4044 433.262,61.7377 431.5,62.5C 431.738,60.5956 432.738,59.2623 434.5,58.5 Z"/></g>
<g><path style="opacity:0.094" fill="#d6efe6" d="M 104.5,60.5 C 105.674,61.5137 106.34,62.847 106.5,64.5C 104.896,63.713 104.229,62.3797 104.5,60.5 Z"/></g>
<g><path style="opacity:0.016" fill="#d6f0e6" d="M 344.5,60.5 C 345.906,60.9731 346.573,61.9731 346.5,63.5C 345.094,63.0269 344.427,62.0269 344.5,60.5 Z"/></g>
<g><path style="opacity:0.675" fill="#b0dfce" d="M 346.5,63.5 C 349.089,64.4194 351.089,66.086 352.5,68.5C 349.911,67.5806 347.911,65.914 346.5,63.5 Z"/></g>
<g><path style="opacity:0.247" fill="#c5e8dc" d="M 76.5,62.5 C 77.9063,62.9731 78.573,63.9731 78.5,65.5C 77.0937,65.0269 76.427,64.0269 76.5,62.5 Z"/></g>
<g><path style="opacity:0.031" fill="#dcf2ea" d="M 174.5,57.5 C 174.206,60.7541 172.873,63.4208 170.5,65.5C 171.326,62.5152 172.659,59.8485 174.5,57.5 Z"/></g>
<g><path style="opacity:0.012" fill="#d5ece4" d="M 106.5,64.5 C 107.906,64.9731 108.573,65.9731 108.5,67.5C 107.094,67.0269 106.427,66.0269 106.5,64.5 Z"/></g>
<g><path style="opacity:0.024" fill="#d4ece4" d="M 403.5,61.5 C 402.5,64.5 400.5,66.5 397.5,67.5C 399.167,65.1667 401.167,63.1667 403.5,61.5 Z"/></g>
<g><path style="opacity:0.012" fill="#daf1e8" d="M 170.5,65.5 C 170.573,67.0269 169.906,68.0269 168.5,68.5C 168.427,66.9731 169.094,65.9731 170.5,65.5 Z"/></g>
<g><path style="opacity:0.275" fill="#c1e7da" d="M 78.5,65.5 C 79.9063,65.9731 80.573,66.9731 80.5,68.5C 79.0937,68.0269 78.427,67.0269 78.5,65.5 Z"/></g>
<g><path style="opacity:0.482" fill="#b0e1d0" d="M 430.5,64.5 C 429.92,66.7488 428.587,68.4154 426.5,69.5C 427.08,67.2512 428.413,65.5846 430.5,64.5 Z"/></g>
<g><path style="opacity:0.596" fill="#b3e2d2" d="M 80.5,68.5 C 82.2624,69.2623 83.2624,70.5956 83.5,72.5C 81.7376,71.7377 80.7376,70.4044 80.5,68.5 Z"/></g>
<g><path style="opacity:0.016" fill="#c9eade" d="M 109.5,68.5 C 111.833,70.1667 113.833,72.1667 115.5,74.5C 112.5,73.5 110.5,71.5 109.5,68.5 Z"/></g>
<g><path style="opacity:0.027" fill="#dbeee2" d="M 228.5,67.5 C 231.452,69.7851 234.118,72.4517 236.5,75.5C 232.855,73.8551 230.188,71.1884 228.5,67.5 Z"/></g>
<g><path style="opacity:0.341" fill="#b6e2d3" d="M 352.5,68.5 C 354.027,68.427 355.027,69.0937 355.5,70.5C 353.973,70.573 352.973,69.9063 352.5,68.5 Z"/></g>
<g><path style="opacity:0.02" fill="#dbf1ea" d="M 396.5,68.5 C 396.027,69.9063 395.027,70.573 393.5,70.5C 393.973,69.0937 394.973,68.427 396.5,68.5 Z"/></g>
<g><path style="opacity:0.008" fill="#e2f4ee" d="M 168.5,68.5 C 168.5,70.5 167.5,71.5 165.5,71.5C 166.167,70.1667 167.167,69.1667 168.5,68.5 Z"/></g>
<g><path style="opacity:0.012" fill="#e4f1e8" d="M 288.5,68.5 C 287.5,71.5 285.5,73.5 282.5,74.5C 284.167,72.1667 286.167,70.1667 288.5,68.5 Z"/></g>
<g><path style="opacity:0.961" fill="#99d7c0" d="M 357.5,71.5 C 360.647,71.7366 363.647,72.5699 366.5,74C 370.152,74.4986 373.818,74.6653 377.5,74.5C 375.393,75.4682 373.059,75.8016 370.5,75.5C 365.588,75.7497 361.255,74.4163 357.5,71.5 Z"/></g>
<g><path style="opacity:0.012" fill="#def3ec" d="M 165.5,71.5 C 165.5,72.8333 164.833,73.5 163.5,73.5C 163.833,72.5 164.5,71.8333 165.5,71.5 Z"/></g>
<g><path style="opacity:0.02" fill="#d8f0e8" d="M 389.5,72.5 C 386.281,74.7183 382.614,75.885 378.5,76C 375.633,76.8007 372.966,76.6341 370.5,75.5C 373.059,75.8016 375.393,75.4682 377.5,74.5C 381.557,74.1522 385.557,73.4855 389.5,72.5 Z"/></g>
<g><path style="opacity:0.439" fill="#b1e2d1" d="M 83.5,72.5 C 85.2624,73.2623 86.2624,74.5956 86.5,76.5C 84.7376,75.7377 83.7376,74.4044 83.5,72.5 Z"/></g>
<g><path style="opacity:0.549" fill="#a9dfcc" d="M 115.5,74.5 C 117.404,74.7376 118.738,75.7376 119.5,77.5C 117.596,77.2624 116.262,76.2624 115.5,74.5 Z"/></g>
<g><path style="opacity:0.024" fill="#d3eee5" d="M 321.5,75.5 C 323.898,75.2594 325.898,75.9261 327.5,77.5C 325.214,77.405 323.214,76.7384 321.5,75.5 Z"/></g>
<g><path style="opacity:0.008" fill="#e7f4f0" d="M 161.5,75.5 C 161.027,76.9063 160.027,77.573 158.5,77.5C 158.973,76.0937 159.973,75.427 161.5,75.5 Z"/></g>
<g><path style="opacity:0.247" fill="#d5edde" d="M 236.5,75.5 C 238.027,75.427 239.027,76.0937 239.5,77.5C 237.973,77.573 236.973,76.9063 236.5,75.5 Z"/></g>
<g><path style="opacity:0.024" fill="#e4f0e8" d="M 281.5,75.5 C 281.027,76.9063 280.027,77.573 278.5,77.5C 278.973,76.0937 279.973,75.427 281.5,75.5 Z"/></g>
<g><path style="opacity:0.502" fill="#c0e7d9" d="M 312.5,75.5 C 312.027,76.9063 311.027,77.573 309.5,77.5C 309.973,76.0937 310.973,75.427 312.5,75.5 Z"/></g>
<g><path style="opacity:0.804" fill="#90d0b9" d="M 420.5,75.5 C 420.5,77.5 419.5,78.5 417.5,78.5C 418.167,77.1667 419.167,76.1667 420.5,75.5 Z"/></g>
<g><path style="opacity:0.141" fill="#ceede2" d="M 119.5,77.5 C 121.027,77.427 122.027,78.0937 122.5,79.5C 120.973,79.573 119.973,78.9063 119.5,77.5 Z"/></g>
<g><path style="opacity:0.059" fill="#daf1e9" d="M 158.5,77.5 C 157.713,79.1042 156.38,79.7709 154.5,79.5C 155.514,78.3263 156.847,77.6596 158.5,77.5 Z"/></g>
<g><path style="opacity:0.094" fill="#deefe2" d="M 239.5,77.5 C 241.153,77.6596 242.486,78.3263 243.5,79.5C 241.62,79.7709 240.287,79.1042 239.5,77.5 Z"/></g>
<g><path style="opacity:0.086" fill="#dff0e5" d="M 278.5,77.5 C 277.713,79.1042 276.38,79.7709 274.5,79.5C 275.514,78.3263 276.847,77.6596 278.5,77.5 Z"/></g>
<g><path style="opacity:0.149" fill="#d0eee4" d="M 327.5,77.5 C 329.553,77.4021 331.22,78.0687 332.5,79.5C 330.447,79.5979 328.78,78.9313 327.5,77.5 Z"/></g>
<g><path style="opacity:0.51" fill="#b0e1d0" d="M 417.5,78.5 C 416.738,80.2624 415.404,81.2624 413.5,81.5C 414.262,79.7376 415.596,78.7376 417.5,78.5 Z"/></g>
<g><path style="opacity:0.035" fill="#d2eee4" d="M 154.5,79.5 C 153.07,80.5375 151.403,81.2041 149.5,81.5C 150.635,79.7868 152.302,79.1201 154.5,79.5 Z"/></g>
<g><path style="opacity:0.008" fill="#e2f1e7" d="M 274.5,79.5 C 271.916,81.4725 268.916,82.4725 265.5,82.5C 265.5,82.1667 265.5,81.8333 265.5,81.5C 268.426,80.5392 271.426,79.8726 274.5,79.5 Z"/></g>
<g><path style="opacity:0.039" fill="#d7efe7" d="M 334.5,80.5 C 336.38,80.2291 337.713,80.8958 338.5,82.5C 336.847,82.3404 335.514,81.6737 334.5,80.5 Z"/></g>
<g><path style="opacity:0.761" fill="#a6dbc8" d="M 122.5,79.5 C 131.39,81.2142 140.39,81.8809 149.5,81.5C 140.256,84.4479 131.256,83.7812 122.5,79.5 Z"/></g>
<g><path style="opacity:0.808" fill="#badec8" d="M 243.5,79.5 C 250.712,81.1815 258.045,81.8482 265.5,81.5C 265.5,81.8333 265.5,82.1667 265.5,82.5C 261.354,83.647 257.02,83.8136 252.5,83C 249.135,82.4947 246.135,81.328 243.5,79.5 Z"/></g>
<g><path style="opacity:0.263" fill="#ccebe0" d="M 54.5,46.5 C 54.5807,62.1733 54.914,77.84 55.5,93.5C 53.5115,77.8585 53.1781,62.1919 54.5,46.5 Z"/></g>
<g><path style="opacity:0.216" fill="#bde6d3" d="M 309.5,77.5 C 305.34,83.442 303.007,90.1086 302.5,97.5C 301.662,97.1583 301.328,96.4916 301.5,95.5C 301.31,91.21 302.31,87.21 304.5,83.5C 304.043,82.7025 303.376,82.3691 302.5,82.5C 304.972,81.0911 307.305,79.4244 309.5,77.5 Z"/></g>
<g><path style="opacity:0.447" fill="#b8e3d4" d="M 413.5,81.5 C 412.738,83.2624 411.404,84.2624 409.5,84.5C 410.262,82.7376 411.596,81.7376 413.5,81.5 Z"/></g>
<g><path style="opacity:0.106" fill="#d0ede3" d="M 457.5,32.5 C 459.034,37.8008 460.034,43.3008 460.5,49C 460.017,64.9962 458.683,80.8295 456.5,96.5C 458.552,75.1871 458.885,53.8538 457.5,32.5 Z"/></g>
<g><path style="opacity:0.478" fill="#cce8d6" d="M 302.5,82.5 C 302.027,83.9063 301.027,84.573 299.5,84.5C 299.973,83.0937 300.973,82.427 302.5,82.5 Z"/></g>
<g><path style="opacity:0.075" fill="#d2eee5" d="M 340.5,83.5 C 342.38,83.2291 343.713,83.8958 344.5,85.5C 342.847,85.3404 341.514,84.6737 340.5,83.5 Z"/></g>
<g><path style="opacity:0.827" fill="#9bd6c0" d="M 191.5,82.5 C 188.66,84.9151 185.327,86.2484 181.5,86.5C 184.37,84.2057 187.703,82.8723 191.5,82.5 Z"/></g>
<g><path style="opacity:1" fill="#6ec493" d="M 302.5,82.5 C 303.376,82.3691 304.043,82.7025 304.5,83.5C 302.31,87.21 301.31,91.21 301.5,95.5C 299.918,113.904 301.418,132.238 306,150.5C 309.39,165.002 313.39,179.336 318,193.5C 318.159,198.877 317.659,204.21 316.5,209.5C 313.346,214.622 311.346,220.289 310.5,226.5C 308.787,227.635 308.12,229.302 308.5,231.5C 305.379,234.799 303.712,238.799 303.5,243.5C 301.896,244.287 301.229,245.62 301.5,247.5C 300.326,248.514 299.66,249.847 299.5,251.5C 299.008,253.819 298.008,255.819 296.5,257.5C 294.05,259.629 292.383,262.296 291.5,265.5C 290.094,265.973 289.427,266.973 289.5,268.5C 287.413,269.585 286.08,271.251 285.5,273.5C 285.167,274.5 284.5,275.167 283.5,275.5C 281.167,277.167 279.167,279.167 277.5,281.5C 275.973,281.427 274.973,282.094 274.5,283.5C 272.181,283.992 270.181,284.992 268.5,286.5C 264.181,287.674 259.847,287.674 255.5,286.5C 253.181,286.008 251.181,285.008 249.5,283.5C 248.738,281.738 247.404,280.738 245.5,280.5C 243.167,277.5 240.5,274.833 237.5,272.5C 236.5,272.167 235.833,271.5 235.5,270.5C 235.573,268.973 234.906,267.973 233.5,267.5C 233.262,265.596 232.262,264.262 230.5,263.5C 230.573,261.973 229.906,260.973 228.5,260.5C 228.426,257.341 227.093,255.008 224.5,253.5C 223.781,251.236 223.448,248.903 223.5,246.5C 222.5,246.5 221.5,246.5 220.5,246.5C 218.992,244.819 217.992,242.819 217.5,240.5C 217.785,238.712 217.452,237.045 216.5,235.5C 215.34,233.289 214.007,231.289 212.5,229.5C 212.598,227.447 211.931,225.78 210.5,224.5C 207.072,212.877 203.072,201.544 198.5,190.5C 206.499,165.489 211.166,139.822 212.5,113.5C 212.617,107.404 211.951,101.404 210.5,95.5C 210.833,94.5 211.167,93.5 211.5,92.5C 212.842,94.0049 214.508,94.6715 216.5,94.5C 232.529,101.434 249.195,103.268 266.5,100C 269.79,99.2751 272.79,98.1084 275.5,96.5C 278.461,96.5358 280.794,95.5358 282.5,93.5C 284.483,93.8432 285.817,93.1765 286.5,91.5C 290.085,91.7083 292.751,90.375 294.5,87.5C 296.848,87.4077 298.514,86.4077 299.5,84.5C 301.027,84.573 302.027,83.9063 302.5,82.5 Z"/></g>
<g><path style="opacity:1" fill="#77caab" d="M 92.5,82.5 C 94.1667,83.5 95.5,84.8333 96.5,86.5C 93.858,86.5123 92.5246,85.179 92.5,82.5 Z"/></g>
<g><path style="opacity:0.722" fill="#a8dcca" d="M 203.5,84.5 C 205.262,85.2623 206.262,86.5956 206.5,88.5C 204.738,87.7377 203.738,86.4044 203.5,84.5 Z"/></g>
<g><path style="opacity:0.153" fill="#caeadf" d="M 344.5,85.5 C 353.569,88.9107 362.902,91.4107 372.5,93C 379.574,93.5539 386.574,93.0539 393.5,91.5C 376.407,96.5555 360.074,94.5555 344.5,85.5 Z"/></g>
<g><path style="opacity:0.933" fill="#93d5bc" d="M 409.5,84.5 C 408.817,86.1765 407.483,86.8432 405.5,86.5C 406.514,85.3263 407.847,84.6596 409.5,84.5 Z"/></g>
<g><path style="opacity:0.392" fill="#c5e6d2" d="M 299.5,84.5 C 298.514,86.4077 296.848,87.4077 294.5,87.5C 295.659,85.7497 297.326,84.7497 299.5,84.5 Z"/></g>
<g><path style="opacity:0.894" fill="#9dd7c1" d="M 96.5,86.5 C 98.2303,87.0256 99.5637,88.0256 100.5,89.5C 98.368,89.4456 97.0347,88.4456 96.5,86.5 Z"/></g>
<g><path style="opacity:0.416" fill="#c7e9dd" d="M 181.5,86.5 C 180.486,87.6737 179.153,88.3404 177.5,88.5C 178.287,86.8958 179.62,86.2291 181.5,86.5 Z"/></g>
<g><path style="opacity:0.055" fill="#caeade" d="M 405.5,86.5 C 404.216,88.6138 402.216,89.6138 399.5,89.5C 401.181,87.9925 403.181,86.9925 405.5,86.5 Z"/></g>
<g><path style="opacity:0.894" fill="#8dd2b8" d="M 177.5,88.5 C 175.91,90.821 173.577,91.821 170.5,91.5C 172.509,89.9348 174.843,88.9348 177.5,88.5 Z"/></g>
<g><path style="opacity:0.886" fill="#b3dac2" d="M 294.5,87.5 C 292.751,90.375 290.085,91.7083 286.5,91.5C 288.849,89.659 291.515,88.3257 294.5,87.5 Z"/></g>
<g><path style="opacity:0.831" fill="#aaddca" d="M 399.5,89.5 C 398.01,91.2798 396.01,91.9465 393.5,91.5C 395.214,90.2616 397.214,89.595 399.5,89.5 Z"/></g>
<g><path style="opacity:0.133" fill="#ceede2" d="M 103.5,91.5 C 105.674,91.7497 107.341,92.7497 108.5,94.5C 106.326,94.2503 104.659,93.2503 103.5,91.5 Z"/></g>
<g><path style="opacity:0.867" fill="#bce0cb" d="M 286.5,91.5 C 285.817,93.1765 284.483,93.8432 282.5,93.5C 283.514,92.3263 284.847,91.6596 286.5,91.5 Z"/></g>
<g><path style="opacity:0.067" fill="#d3efe6" d="M 108.5,94.5 C 110.38,94.2291 111.713,94.8958 112.5,96.5C 110.847,96.3404 109.514,95.6737 108.5,94.5 Z"/></g>
<g><path style="opacity:0.753" fill="#a8ddca" d="M 166.5,93.5 C 165.365,95.2132 163.698,95.8799 161.5,95.5C 162.93,94.4625 164.597,93.7959 166.5,93.5 Z"/></g>
<g><path style="opacity:0.89" fill="#bee0cc" d="M 282.5,93.5 C 280.794,95.5358 278.461,96.5358 275.5,96.5C 277.509,94.9348 279.843,93.9348 282.5,93.5 Z"/></g>
<g><path style="opacity:0.749" fill="#aedfce" d="M 161.5,95.5 C 160.365,97.2132 158.698,97.8799 156.5,97.5C 157.78,96.0687 159.447,95.4021 161.5,95.5 Z"/></g>
<g><path style="opacity:0.208" fill="#c8eade" d="M 112.5,96.5 C 115.785,96.9281 118.785,97.9281 121.5,99.5C 118.084,99.4725 115.084,98.4725 112.5,96.5 Z"/></g>
<g><path style="opacity:0.184" fill="#d4ebdd" d="M 216.5,94.5 C 216.5,94.1667 216.5,93.8333 216.5,93.5C 235.791,101.473 255.458,102.473 275.5,96.5C 272.79,98.1084 269.79,99.2751 266.5,100C 249.195,103.268 232.529,101.434 216.5,94.5 Z"/></g>
<g><path style="opacity:0.765" fill="#9bd9c2" d="M 153.5,98.5 C 151.485,99.9238 149.152,100.59 146.5,100.5C 146.5,100.167 146.5,99.8333 146.5,99.5C 148.764,98.7814 151.097,98.448 153.5,98.5 Z"/></g>
<g><path style="opacity:0.018" fill="#cfece2" d="M 55.5,93.5 C 59.211,119.083 63.211,144.749 67.5,170.5C 61.4685,145.279 57.4685,119.612 55.5,93.5 Z"/></g>
<g><path style="opacity:0.082" fill="#d8f1e8" d="M 121.5,99.5 C 129.84,100.732 138.173,100.732 146.5,99.5C 146.5,99.8333 146.5,100.167 146.5,100.5C 137.963,102.026 129.63,101.693 121.5,99.5 Z"/></g>
<g><path style="opacity:0.02" fill="#d4ede4" d="M 456.5,96.5 C 456.473,102.051 455.806,107.384 454.5,112.5C 454.255,106.916 454.922,101.583 456.5,96.5 Z"/></g>
<g><path style="opacity:0.165" fill="#ccede2" d="M 454.5,112.5 C 454.562,117.076 453.895,121.409 452.5,125.5C 452.28,120.9 452.946,116.567 454.5,112.5 Z"/></g>
<g><path style="opacity:0.435" fill="#b2e2cb" d="M 301.5,95.5 C 301.328,96.4916 301.662,97.1583 302.5,97.5C 302.334,105.84 302.5,114.173 303,122.5C 306.937,149.808 313.437,176.475 322.5,202.5C 321.442,201.4 320.608,200.066 320,198.5C 319.096,202.372 317.93,206.039 316.5,209.5C 317.659,204.21 318.159,198.877 318,193.5C 313.39,179.336 309.39,165.002 306,150.5C 301.418,132.238 299.918,113.904 301.5,95.5 Z"/></g>
<g><path style="opacity:0.447" fill="#b6e3cd" d="M 206.5,88.5 C 210.151,89.6589 213.485,91.3256 216.5,93.5C 216.5,93.8333 216.5,94.1667 216.5,94.5C 214.508,94.6715 212.842,94.0049 211.5,92.5C 211.167,93.5 210.833,94.5 210.5,95.5C 211.951,101.404 212.617,107.404 212.5,113.5C 211.166,139.822 206.499,165.489 198.5,190.5C 197.5,192.5 196.5,194.5 195.5,196.5C 199.153,182.889 202.653,169.222 206,155.5C 210.039,137.027 211.373,118.361 210,99.5C 209.126,95.7124 207.959,92.0457 206.5,88.5 Z"/></g>
<g><path style="opacity:0.129" fill="#cbebdf" d="M 452.5,125.5 C 449.032,153.186 443.032,180.186 434.5,206.5C 441.32,179.567 447.32,152.567 452.5,125.5 Z"/></g>
<g><path style="opacity:0.239" fill="#c7eadd" d="M 67.5,170.5 C 69.4977,174.126 70.4977,178.126 70.5,182.5C 68.5841,178.837 67.5841,174.837 67.5,170.5 Z"/></g>
<g><path style="opacity:0.031" fill="#dff2eb" d="M 71.5,187.5 C 73.0395,189.838 73.7062,192.505 73.5,195.5C 71.9605,193.162 71.2938,190.495 71.5,187.5 Z"/></g>
<g><path style="opacity:0.004" fill="#d4eadc" d="M 198.5,190.5 C 203.072,201.544 207.072,212.877 210.5,224.5C 205.134,213.741 201.134,202.408 198.5,190.5 Z"/></g>
<g><path style="opacity:0.016" fill="#d1ece2" d="M 74.5,199.5 C 76.5682,202.763 77.5682,206.43 77.5,210.5C 75.8816,207.112 74.8816,203.446 74.5,199.5 Z"/></g>
<g><path style="opacity:0.396" fill="#bbe5d6" d="M 322.5,202.5 C 324.074,204.102 324.741,206.102 324.5,208.5C 323.262,206.786 322.595,204.786 322.5,202.5 Z"/></g>
<g><path style="opacity:0.098" fill="#d0ede3" d="M 193.5,202.5 C 193.267,205.542 192.267,208.208 190.5,210.5C 190.733,207.458 191.733,204.792 193.5,202.5 Z"/></g>
<g><path style="opacity:0.012" fill="#d7eee6" d="M 434.5,206.5 C 433.616,211.054 432.283,215.387 430.5,219.5C 430.769,214.736 432.102,210.403 434.5,206.5 Z"/></g>
<g><path style="opacity:0.204" fill="#ceece2" d="M 77.5,210.5 C 79.4725,213.084 80.4725,216.084 80.5,219.5C 78.9281,216.785 77.9281,213.785 77.5,210.5 Z"/></g>
<g><path style="opacity:0.133" fill="#cfeee3" d="M 190.5,210.5 C 190.598,212.553 189.931,214.22 188.5,215.5C 188.402,213.447 189.069,211.78 190.5,210.5 Z"/></g>
<g><path style="opacity:0.259" fill="#c9e6d4" d="M 316.5,209.5 C 314.946,215.417 312.946,221.083 310.5,226.5C 311.346,220.289 313.346,214.622 316.5,209.5 Z"/></g>
<g><path style="opacity:0.278" fill="#c0e8da" d="M 326.5,212.5 C 327.931,213.78 328.598,215.447 328.5,217.5C 327.069,216.22 326.402,214.553 326.5,212.5 Z"/></g>
<g><path style="opacity:0.212" fill="#c0e8da" d="M 328.5,217.5 C 329.931,218.78 330.598,220.447 330.5,222.5C 329.069,221.22 328.402,219.553 328.5,217.5 Z"/></g>
<g><path style="opacity:0.345" fill="#c2e8db" d="M 80.5,219.5 C 82.0739,221.102 82.7406,223.102 82.5,225.5C 81.2616,223.786 80.595,221.786 80.5,219.5 Z"/></g>
<g><path style="opacity:0.2" fill="#d2ede4" d="M 430.5,219.5 C 430.598,221.553 429.931,223.22 428.5,224.5C 428.402,222.447 429.069,220.78 430.5,219.5 Z"/></g>
<g><path style="opacity:0.251" fill="#d5ede0" d="M 210.5,224.5 C 211.931,225.78 212.598,227.447 212.5,229.5C 211.069,228.22 210.402,226.553 210.5,224.5 Z"/></g>
<g><path style="opacity:0.333" fill="#bfe7d9" d="M 428.5,224.5 C 428.405,226.786 427.738,228.786 426.5,230.5C 426.259,228.102 426.926,226.102 428.5,224.5 Z"/></g>
<g><path style="opacity:0.333" fill="#c4e6da" d="M 82.5,225.5 C 84.4725,228.084 85.4725,231.084 85.5,234.5C 83.9281,231.785 82.9281,228.785 82.5,225.5 Z"/></g>
<g><path style="opacity:0.522" fill="#c6e4d0" d="M 310.5,226.5 C 310.598,228.553 309.931,230.22 308.5,231.5C 308.12,229.302 308.787,227.635 310.5,226.5 Z"/></g>
<g><path style="opacity:0.09" fill="#cfece2" d="M 188.5,215.5 C 186.987,222.387 184.32,228.72 180.5,234.5C 182.793,227.939 185.459,221.606 188.5,215.5 Z"/></g>
<g><path style="opacity:0.063" fill="#c5e8dc" d="M 330.5,222.5 C 334.7,229.567 338.367,236.9 341.5,244.5C 336.793,237.752 333.126,230.419 330.5,222.5 Z"/></g>
<g><path style="opacity:1" fill="#b7dec6" d="M 212.5,229.5 C 214.007,231.289 215.34,233.289 216.5,235.5C 217.452,237.045 217.785,238.712 217.5,240.5C 215.049,237.26 213.382,233.593 212.5,229.5 Z"/></g>
<g><path style="opacity:0.994" fill="#b5ddc5" d="M 308.5,231.5 C 307.597,235.889 305.931,239.889 303.5,243.5C 303.712,238.799 305.379,234.799 308.5,231.5 Z"/></g>
<g><path style="opacity:0.098" fill="#ccece1" d="M 426.5,230.5 C 426.065,233.157 425.065,235.491 423.5,237.5C 423.552,234.654 424.552,232.32 426.5,230.5 Z"/></g>
<g><path style="opacity:0.212" fill="#cfece2" d="M 85.5,234.5 C 86.9313,235.78 87.5979,237.447 87.5,239.5C 86.0687,238.22 85.4021,236.553 85.5,234.5 Z"/></g>
<g><path style="opacity:0.157" fill="#d4ede4" d="M 422.5,239.5 C 422.598,241.553 421.931,243.22 420.5,244.5C 420.402,242.447 421.069,240.78 422.5,239.5 Z"/></g>
<g><path style="opacity:0.38" fill="#cce9d9" d="M 303.5,243.5 C 303.34,245.153 302.674,246.486 301.5,247.5C 301.229,245.62 301.896,244.287 303.5,243.5 Z"/></g>
<g><path style="opacity:1" fill="#b2dcc3" d="M 220.5,246.5 C 221.5,246.5 222.5,246.5 223.5,246.5C 223.448,248.903 223.781,251.236 224.5,253.5C 222.412,251.664 221.079,249.331 220.5,246.5 Z"/></g>
<g><path style="opacity:0.122" fill="#ceebe1" d="M 90.5,246.5 C 92.2927,248.426 93.2927,250.759 93.5,253.5C 91.7073,251.574 90.7073,249.241 90.5,246.5 Z"/></g>
<g><path style="opacity:0.016" fill="#ddf1ea" d="M 341.5,244.5 C 343.25,245.659 344.25,247.326 344.5,249.5C 342.75,248.341 341.75,246.674 341.5,244.5 Z"/></g>
<g><path style="opacity:0.11" fill="#d4efe6" d="M 419.5,246.5 C 419.539,249.089 418.539,251.089 416.5,252.5C 416.992,250.181 417.992,248.181 419.5,246.5 Z"/></g>
<g><path style="opacity:0.055" fill="#e0f1e6" d="M 301.5,247.5 C 301.771,249.38 301.104,250.713 299.5,251.5C 299.66,249.847 300.326,248.514 301.5,247.5 Z"/></g>
<g><path style="opacity:0.012" fill="#d9efe7" d="M 344.5,249.5 C 345.906,249.973 346.573,250.973 346.5,252.5C 345.094,252.027 344.427,251.027 344.5,249.5 Z"/></g>
<g><path style="opacity:0.008" fill="#def4ed" d="M 172.5,250.5 C 172.573,252.027 171.906,253.027 170.5,253.5C 170.427,251.973 171.094,250.973 172.5,250.5 Z"/></g>
<g><path style="opacity:0.086" fill="#d4efe6" d="M 93.5,253.5 C 94.6737,254.514 95.3404,255.847 95.5,257.5C 93.8958,256.713 93.2291,255.38 93.5,253.5 Z"/></g>
<g><path style="opacity:1" fill="#b8dec7" d="M 224.5,253.5 C 227.093,255.008 228.426,257.341 228.5,260.5C 226.412,258.664 225.079,256.331 224.5,253.5 Z"/></g>
<g><path style="opacity:0.2" fill="#cbece0" d="M 415.5,254.5 C 414.921,257.331 413.588,259.664 411.5,261.5C 412.079,258.669 413.412,256.336 415.5,254.5 Z"/></g>
<g><path style="opacity:0.047" fill="#dbf1ea" d="M 169.5,255.5 C 169.573,257.027 168.906,258.027 167.5,258.5C 167.427,256.973 168.094,255.973 169.5,255.5 Z"/></g>
<g><path style="opacity:0.004" fill="#c5e7db" d="M 347.5,254.5 C 349.877,256.228 351.544,258.561 352.5,261.5C 350.11,259.733 348.443,257.4 347.5,254.5 Z"/></g>
<g><path style="opacity:0.137" fill="#dbeee1" d="M 296.5,257.5 C 295.617,260.704 293.95,263.371 291.5,265.5C 292.383,262.296 294.05,259.629 296.5,257.5 Z"/></g>
<g><path style="opacity:0.02" fill="#e2f0e6" d="M 228.5,260.5 C 229.906,260.973 230.573,261.973 230.5,263.5C 229.094,263.027 228.427,262.027 228.5,260.5 Z"/></g>
<g><path style="opacity:1" fill="#a3dac4" d="M 97.5,261.5 C 100.312,262.895 101.646,265.229 101.5,268.5C 99.412,266.664 98.0787,264.331 97.5,261.5 Z"/></g>
<g><path style="opacity:0.016" fill="#ccece1" d="M 165.5,261.5 C 165.573,263.027 164.906,264.027 163.5,264.5C 163.427,262.973 164.094,261.973 165.5,261.5 Z"/></g>
<g><path style="opacity:0.016" fill="#d2eee4" d="M 411.5,261.5 C 411.573,263.027 410.906,264.027 409.5,264.5C 409.427,262.973 410.094,261.973 411.5,261.5 Z"/></g>
<g><path style="opacity:0.008" fill="#dff0ea" d="M 353.5,262.5 C 354.906,262.973 355.573,263.973 355.5,265.5C 354.094,265.027 353.427,264.027 353.5,262.5 Z"/></g>
<g><path style="opacity:0.004" fill="#e1f1e8" d="M 230.5,263.5 C 232.262,264.262 233.262,265.596 233.5,267.5C 231.738,266.738 230.738,265.404 230.5,263.5 Z"/></g>
<g><path style="opacity:0.02" fill="#d3eee4" d="M 163.5,264.5 C 163.573,266.027 162.906,267.027 161.5,267.5C 161.427,265.973 162.094,264.973 163.5,264.5 Z"/></g>
<g><path style="opacity:0.024" fill="#d6eee6" d="M 409.5,264.5 C 409.573,266.027 408.906,267.027 407.5,267.5C 407.427,265.973 408.094,264.973 409.5,264.5 Z"/></g>
<g><path style="opacity:0.11" fill="#d9ede0" d="M 291.5,265.5 C 291.573,267.027 290.906,268.027 289.5,268.5C 289.427,266.973 290.094,265.973 291.5,265.5 Z"/></g>
<g><path style="opacity:0.004" fill="#d9efe7" d="M 357.5,267.5 C 359.167,268.5 360.5,269.833 361.5,271.5C 359.167,271.167 357.833,269.833 357.5,267.5 Z"/></g>
<g><path style="opacity:0.024" fill="#d0eee3" d="M 160.5,268.5 C 160.573,270.027 159.906,271.027 158.5,271.5C 158.427,269.973 159.094,268.973 160.5,268.5 Z"/></g>
<g><path style="opacity:0.086" fill="#dceee2" d="M 233.5,267.5 C 234.906,267.973 235.573,268.973 235.5,270.5C 234.094,270.027 233.427,269.027 233.5,267.5 Z"/></g>
<g><path style="opacity:0.039" fill="#dceee2" d="M 289.5,268.5 C 288.92,270.749 287.587,272.415 285.5,273.5C 286.08,271.251 287.413,269.585 289.5,268.5 Z"/></g>
<g><path style="opacity:0.027" fill="#d5efe6" d="M 406.5,268.5 C 405.92,270.749 404.587,272.415 402.5,273.5C 403.08,271.251 404.413,269.585 406.5,268.5 Z"/></g>
<g><path style="opacity:0.008" fill="#ddf2eb" d="M 361.5,271.5 C 362.5,271.833 363.167,272.5 363.5,273.5C 362.167,273.5 361.5,272.833 361.5,271.5 Z"/></g>
<g><path style="opacity:0.071" fill="#d5efe6" d="M 103.5,271.5 C 104.906,271.973 105.573,272.973 105.5,274.5C 104.094,274.027 103.427,273.027 103.5,271.5 Z"/></g>
<g><path style="opacity:0.004" fill="#dfefe4" d="M 237.5,272.5 C 240.5,274.833 243.167,277.5 245.5,280.5C 241.833,278.833 239.167,276.167 237.5,272.5 Z"/></g>
<g><path style="opacity:0.02" fill="#d4ede4" d="M 156.5,273.5 C 156.573,275.027 155.906,276.027 154.5,276.5C 154.427,274.973 155.094,273.973 156.5,273.5 Z"/></g>
<g><path style="opacity:0.4" fill="#b8e2d3" d="M 105.5,274.5 C 107.531,275.539 108.864,277.205 109.5,279.5C 107.457,278.421 106.124,276.754 105.5,274.5 Z"/></g>
<g><path style="opacity:0.42" fill="#bbe5d6" d="M 365.5,275.5 C 367.404,275.738 368.738,276.738 369.5,278.5C 367.596,278.262 366.262,277.262 365.5,275.5 Z"/></g>
<g><path style="opacity:0.024" fill="#def2eb" d="M 399.5,276.5 C 398.738,278.262 397.404,279.262 395.5,279.5C 396.262,277.738 397.596,276.738 399.5,276.5 Z"/></g>
<g><path style="opacity:0.067" fill="#d9f2e9" d="M 369.5,278.5 C 371.027,278.427 372.027,279.094 372.5,280.5C 370.973,280.573 369.973,279.906 369.5,278.5 Z"/></g>
<g><path style="opacity:0.02" fill="#def0e4" d="M 283.5,275.5 C 282.5,278.5 280.5,280.5 277.5,281.5C 279.167,279.167 281.167,277.167 283.5,275.5 Z"/></g>
<g><path style="opacity:0.82" fill="#a5dbc8" d="M 372.5,280.5 C 375.152,280.41 377.485,281.076 379.5,282.5C 379.167,282.5 378.833,282.5 378.5,282.5C 376.102,282.741 374.102,282.074 372.5,280.5 Z"/></g>
<g><path style="opacity:0.388" fill="#cce9d7" d="M 245.5,280.5 C 247.404,280.738 248.738,281.738 249.5,283.5C 247.596,283.262 246.262,282.262 245.5,280.5 Z"/></g>
<g><path style="opacity:0.027" fill="#e3f2ec" d="M 149.5,281.5 C 148.738,283.262 147.404,284.262 145.5,284.5C 146.262,282.738 147.596,281.738 149.5,281.5 Z"/></g>
<g><path style="opacity:0.02" fill="#e0f2e9" d="M 277.5,281.5 C 277.027,282.906 276.027,283.573 274.5,283.5C 274.973,282.094 275.973,281.427 277.5,281.5 Z"/></g>
<g><path style="opacity:0.097" fill="#e1f3ed" d="M 395.5,279.5 C 394.025,281.41 392.025,282.576 389.5,283C 385.642,283.81 381.976,283.643 378.5,282.5C 378.833,282.5 379.167,282.5 379.5,282.5C 385.097,282.766 390.43,281.766 395.5,279.5 Z"/></g>
<g><path style="opacity:0.098" fill="#dbf0e3" d="M 274.5,283.5 C 273.089,285.539 271.089,286.539 268.5,286.5C 270.181,284.992 272.181,283.992 274.5,283.5 Z"/></g>
<g><path style="opacity:0.18" fill="#c2e8db" d="M 111.5,281.5 C 114.089,282.419 116.089,284.086 117.5,286.5C 114.911,285.581 112.911,283.914 111.5,281.5 Z"/></g>
<g><path style="opacity:0.008" fill="#dff3ec" d="M 145.5,284.5 C 145.027,285.906 144.027,286.573 142.5,286.5C 142.973,285.094 143.973,284.427 145.5,284.5 Z"/></g>
<g><path style="opacity:0.118" fill="#d9f1e8" d="M 117.5,286.5 C 119.027,286.427 120.027,287.094 120.5,288.5C 118.973,288.573 117.973,287.906 117.5,286.5 Z"/></g>
<g><path style="opacity:0.022" fill="#e7f1ea" d="M 255.5,286.5 C 259.847,287.674 264.181,287.674 268.5,286.5C 264.185,289.061 259.852,289.061 255.5,286.5 Z"/></g>
<g><path style="opacity:0.408" fill="#c0e6d8" d="M 120.5,288.5 C 126.508,289.774 132.508,289.774 138.5,288.5C 132.5,292.5 126.5,292.5 120.5,288.5 Z"/></g>
<g><path style="opacity:0.569" fill="#a6ddca" d="M 218.5,321.5 C 220.176,322.183 220.843,323.517 220.5,325.5C 220.5,326.167 220.167,326.5 219.5,326.5C 219.657,325.127 219.49,323.793 219,322.5C 217.89,324.037 216.39,324.703 214.5,324.5C 215.795,323.512 217.128,322.512 218.5,321.5 Z"/></g>
<g><path style="opacity:0.012" fill="#f0f6f4" d="M 220.5,325.5 C 220.843,323.517 220.176,322.183 218.5,321.5C 219.52,320.046 220.687,319.713 222,320.5C 222.599,322.535 222.099,324.201 220.5,325.5 Z"/></g>
<g><path style="opacity:0.027" fill="#dcf5ee" d="M 219.5,326.5 C 220.116,327.798 220.116,328.798 219.5,329.5C 218.167,328.5 218.167,327.5 219.5,326.5 Z"/></g>
<g><path style="opacity:0.102" fill="#dbf2ea" d="M 219.5,330.5 C 220.71,332.176 220.21,333.51 218,334.5C 217.487,333.473 216.987,332.473 216.5,331.5C 217.496,331.414 218.329,331.748 219,332.5C 219.464,331.906 219.631,331.239 219.5,330.5 Z"/></g>
<g><path style="opacity:0.643" fill="#9bdac4" d="M 208.5,325.5 C 205.807,328.581 204.807,332.247 205.5,336.5C 204.362,333.696 204.195,330.696 205,327.5C 205.816,326.177 206.983,325.511 208.5,325.5 Z"/></g>
<g><path style="opacity:0.02" fill="#e8faf5" d="M 213.5,331.5 C 212.962,333.117 212.629,334.784 212.5,336.5C 211.07,334.545 211.403,332.879 213.5,331.5 Z"/></g>
<g><path style="opacity:1" fill="#3fbb90" d="M 219.5,326.5 C 218.167,327.5 218.167,328.5 219.5,329.5C 219.5,329.833 219.5,330.167 219.5,330.5C 219.631,331.239 219.464,331.906 219,332.5C 218.329,331.748 217.496,331.414 216.5,331.5C 215.5,332.833 214.5,332.833 213.5,331.5C 211.403,332.879 211.07,334.545 212.5,336.5C 213.559,338.555 215.225,339.889 217.5,340.5C 220.625,341.479 223.958,341.813 227.5,341.5C 227.5,343.167 227.5,344.833 227.5,346.5C 222.489,346.334 217.489,346.501 212.5,347C 211.263,347.232 210.263,347.732 209.5,348.5C 207.517,348.843 206.183,348.176 205.5,346.5C 205.5,344.5 206.5,343.5 208.5,343.5C 209.995,343.585 210.995,342.919 211.5,341.5C 210.717,339.712 209.384,338.712 207.5,338.5C 206.5,338.167 205.833,337.5 205.5,336.5C 204.807,332.247 205.807,328.581 208.5,325.5C 210.265,324.539 212.265,324.205 214.5,324.5C 216.39,324.703 217.89,324.037 219,322.5C 219.49,323.793 219.657,325.127 219.5,326.5 Z"/></g>
<g><path style="opacity:0.325" fill="#b0e1d0" d="M 207.5,338.5 C 209.384,338.712 210.717,339.712 211.5,341.5C 210.995,342.919 209.995,343.585 208.5,343.5C 209.734,341.602 209.401,339.935 207.5,338.5 Z"/></g>
<g><path style="opacity:0.515" fill="#b5e3d4" d="M 217.5,340.5 C 221.182,340.335 224.848,340.501 228.5,341C 228.784,342.956 228.784,345.123 228.5,347.5C 222.131,347.347 215.797,347.68 209.5,348.5C 210.263,347.732 211.263,347.232 212.5,347C 217.489,346.501 222.489,346.334 227.5,346.5C 227.5,344.833 227.5,343.167 227.5,341.5C 223.958,341.813 220.625,341.479 217.5,340.5 Z"/></g>
<g><path style="opacity:0.98" fill="#8fd5bb" d="M 205.5,346.5 C 206.183,348.176 207.517,348.843 209.5,348.5C 203.98,355.434 202.646,354.767 205.5,346.5 Z"/></g>
<g><path style="opacity:1" fill="#30b88a" d="M 214.5,352.5 C 215.5,352.833 216.167,353.5 216.5,354.5C 216.5,356.5 217.5,357.5 219.5,357.5C 219.525,360.179 220.858,361.512 223.5,361.5C 223.833,362.5 224.5,363.167 225.5,363.5C 228.167,365.833 230.833,368.167 233.5,370.5C 233.567,371.959 233.234,373.292 232.5,374.5C 232.158,375.338 231.492,375.672 230.5,375.5C 229.391,375.557 228.391,375.89 227.5,376.5C 226.502,402.995 226.169,429.661 226.5,456.5C 222.167,456.5 217.833,456.5 213.5,456.5C 213.168,421.663 213.502,386.996 214.5,352.5 Z"/></g>
<g><path style="opacity:0.784" fill="#a3ddc8" d="M 216.5,354.5 C 217.833,355.167 218.833,356.167 219.5,357.5C 217.5,357.5 216.5,356.5 216.5,354.5 Z"/></g>
<g><path style="opacity:0.792" fill="#afe1d0" d="M 59.5,359.5 C 57.6854,358.37 55.6854,357.704 53.5,357.5C 53.811,356.522 54.4777,355.855 55.5,355.5C 57.188,356.521 58.5213,357.855 59.5,359.5 Z"/></g>
<g><path style="opacity:0.694" fill="#a9e0cd" d="M 80.5,357.5 C 79.1667,357.5 77.8333,357.5 76.5,357.5C 77.8333,354.833 79.1667,354.833 80.5,357.5 Z"/></g>
<g><path style="opacity:1" fill="#44bd92" d="M 76.5,357.5 C 77.8333,357.5 79.1667,357.5 80.5,357.5C 82.8333,359.167 84.8333,361.167 86.5,363.5C 87.1495,365.435 87.4828,367.435 87.5,369.5C 85.5,372.167 83.1667,374.5 80.5,376.5C 78.7839,376.371 77.1172,376.038 75.5,375.5C 75.5,373.5 74.5,372.5 72.5,372.5C 70.5,371.167 68.8333,369.5 67.5,367.5C 67.5,367.167 67.5,366.833 67.5,366.5C 68.5,364.833 69.8333,363.5 71.5,362.5C 73.0269,362.573 74.0269,361.906 74.5,360.5C 74.427,358.973 75.0937,357.973 76.5,357.5 Z"/></g>
<g><path style="opacity:1" fill="#41bc90" d="M 53.5,357.5 C 55.6854,357.704 57.6854,358.37 59.5,359.5C 61.1667,360.5 62.5,361.833 63.5,363.5C 64.1667,365.167 64.8333,366.833 65.5,368.5C 65.5,369.167 65.1667,369.5 64.5,369.5C 62.8102,369.856 61.8102,370.856 61.5,372.5C 60.1266,372.343 58.7932,372.51 57.5,373C 58.2524,373.671 58.5858,374.504 58.5,375.5C 57.625,377.806 56.2916,378.473 54.5,377.5C 54.1667,376.5 53.5,375.833 52.5,375.5C 50.8333,374.5 49.5,373.167 48.5,371.5C 48.1667,370.5 47.5,369.833 46.5,369.5C 45.5,369.167 44.8333,368.5 44.5,367.5C 44.8333,366.833 45.1667,366.167 45.5,365.5C 47.5,364.167 49.1667,362.5 50.5,360.5C 51.1667,359.167 52.1667,358.167 53.5,357.5 Z"/></g>
<g><path style="opacity:1" fill="#77ccad" d="M 219.5,357.5 C 221.167,358.5 222.5,359.833 223.5,361.5C 220.858,361.512 219.525,360.179 219.5,357.5 Z"/></g>
<g><path style="opacity:0.741" fill="#9eddc7" d="M 74.5,360.5 C 74.0269,361.906 73.0269,362.573 71.5,362.5C 71.9731,361.094 72.9731,360.427 74.5,360.5 Z"/></g>
<g><path style="opacity:0.004" fill="#d0ede4" d="M 223.5,361.5 C 224.833,361.5 225.5,362.167 225.5,363.5C 224.5,363.167 223.833,362.5 223.5,361.5 Z"/></g>
<g><path style="opacity:0.49" fill="#b6e2d5" d="M 50.5,360.5 C 49.1667,362.5 47.5,364.167 45.5,365.5C 46.1667,362.833 47.8333,361.167 50.5,360.5 Z"/></g>
<g><path style="opacity:0.136" fill="#d8f3ea" d="M 214.5,352.5 C 213.502,386.996 213.168,421.663 213.5,456.5C 217.833,456.5 222.167,456.5 226.5,456.5C 226.833,456.5 227.167,456.5 227.5,456.5C 222.695,457.487 217.695,457.821 212.5,457.5C 212.167,422.16 212.5,386.827 213.5,351.5C 214.107,351.624 214.44,351.957 214.5,352.5 Z"/></g>
<g><path style="opacity:0.078" fill="#d5efe7" d="M 45.5,365.5 C 45.1667,366.167 44.8333,366.833 44.5,367.5C 43.2426,366.377 43.5759,365.711 45.5,365.5 Z"/></g>
<g><path style="opacity:0.459" fill="#b6e2d3" d="M 63.5,363.5 C 64.8333,364.5 66.1667,365.5 67.5,366.5C 67.5,366.833 67.5,367.167 67.5,367.5C 66.8333,367.833 66.1667,368.167 65.5,368.5C 64.8333,366.833 64.1667,365.167 63.5,363.5 Z"/></g>
<g><path style="opacity:0.973" fill="#87d0b5" d="M 86.5,363.5 C 89.8555,365.185 90.1888,367.185 87.5,369.5C 87.4828,367.435 87.1495,365.435 86.5,363.5 Z"/></g>
<g><path style="opacity:0.004" fill="#d1eee5" d="M 46.5,369.5 C 47.5,369.833 48.1667,370.5 48.5,371.5C 47.1667,371.5 46.5,370.833 46.5,369.5 Z"/></g>
<g><path style="opacity:0.004" fill="#d5efe7" d="M 64.5,369.5 C 64.1898,371.144 63.1898,372.144 61.5,372.5C 61.8102,370.856 62.8102,369.856 64.5,369.5 Z"/></g>
<g><path style="opacity:1" fill="#93d6bb" d="M 61.5,372.5 C 61.1436,374.19 60.1436,375.19 58.5,375.5C 58.5858,374.504 58.2524,373.671 57.5,373C 58.7932,372.51 60.1266,372.343 61.5,372.5 Z"/></g>
<g><path style="opacity:0.678" fill="#ade0ce" d="M 72.5,372.5 C 74.5,372.5 75.5,373.5 75.5,375.5C 74.1667,374.833 73.1667,373.833 72.5,372.5 Z"/></g>
<g><path style="opacity:0.067" fill="#e8f9f4" d="M 98.5,373.5 C 98.1667,374.167 97.8333,374.833 97.5,375.5C 97.1667,375.5 96.8333,375.5 96.5,375.5C 96.369,374.761 96.5357,374.094 97,373.5C 97.69,372.262 98.19,372.262 98.5,373.5 Z"/></g>
<g><path style="opacity:0.008" fill="#dff3ed" d="M 233.5,370.5 C 234.124,370.917 234.457,371.584 234.5,372.5C 234.253,373.713 233.586,374.38 232.5,374.5C 233.234,373.292 233.567,371.959 233.5,370.5 Z"/></g>
<g><path style="opacity:1" fill="#32b98b" d="M 96.5,375.5 C 96.8333,375.5 97.1667,375.5 97.5,375.5C 98.1667,397.167 98.8333,418.833 99.5,440.5C 112.323,441.495 125.323,441.829 138.5,441.5C 138.5,438.833 138.5,436.167 138.5,433.5C 139.903,430.091 140.57,426.425 140.5,422.5C 141.906,422.027 142.573,421.027 142.5,419.5C 143.833,417.5 145.5,415.833 147.5,414.5C 149.404,414.262 150.738,413.262 151.5,411.5C 151.842,410.662 152.508,410.328 153.5,410.5C 157.165,410.498 160.165,409.165 162.5,406.5C 163.919,405.549 165.585,405.216 167.5,405.5C 170.495,405.706 173.162,405.04 175.5,403.5C 177.698,403.88 179.365,403.213 180.5,401.5C 182.514,401.608 184.18,400.942 185.5,399.5C 185.5,418.167 185.5,436.833 185.5,455.5C 138.833,455.5 92.1667,455.5 45.5,455.5C 45.5,446.5 45.5,437.5 45.5,428.5C 45.9926,426.194 46.3259,423.861 46.5,421.5C 47.1103,419.566 48.1103,417.899 49.5,416.5C 51.5869,415.415 52.9202,413.749 53.5,411.5C 53.8417,410.662 54.5084,410.328 55.5,410.5C 57.4044,410.262 58.7377,409.262 59.5,407.5C 66.0442,405.868 72.7109,405.201 79.5,405.5C 79.8333,405.5 80.1667,405.5 80.5,405.5C 81.5676,406.434 82.901,406.768 84.5,406.5C 84.6655,402.486 84.4988,398.486 84,394.5C 83.6174,393.944 83.1174,393.611 82.5,393.5C 81.1667,392.833 80.1667,391.833 79.5,390.5C 78.1667,389.5 78.1667,388.5 79.5,387.5C 81.5496,385.453 83.883,383.786 86.5,382.5C 88.0269,382.573 89.0269,381.906 89.5,380.5C 91.4044,380.262 92.7377,379.262 93.5,377.5C 95.0269,377.573 96.0269,376.906 96.5,375.5 Z M 80.5,419.5 C 81.925,420.922 82.925,422.589 83.5,424.5C 82.5119,429.64 82.1786,434.974 82.5,440.5C 74.8333,440.5 67.1667,440.5 59.5,440.5C 59.5,437.5 59.5,434.5 59.5,431.5C 60.5375,430.07 61.2041,428.403 61.5,426.5C 66.1517,420.1 72.485,417.767 80.5,419.5 Z M 167.5,419.5 C 168.167,419.5 168.833,419.5 169.5,419.5C 170.497,419.47 171.164,419.97 171.5,421C 172.071,423.603 172.405,426.103 172.5,428.5C 171.427,430.347 171.427,432.347 172.5,434.5C 171.539,436.265 171.205,438.265 171.5,440.5C 165.463,440.829 159.463,440.496 153.5,439.5C 153.026,436.255 153.026,432.921 153.5,429.5C 154.338,429.158 154.672,428.492 154.5,427.5C 155.833,426.833 156.833,425.833 157.5,424.5C 158.306,423.272 159.306,422.272 160.5,421.5C 163.067,421.279 165.401,420.612 167.5,419.5 Z"/></g>
<g><path style="opacity:0.008" fill="#d4f1e7" d="M 52.5,375.5 C 53.5,375.833 54.1667,376.5 54.5,377.5C 53.1667,377.5 52.5,376.833 52.5,375.5 Z"/></g>
<g><path style="opacity:0.863" fill="#8fd3ba" d="M 75.5,375.5 C 77.1172,376.038 78.7839,376.371 80.5,376.5C 78.5434,379.059 76.8767,378.726 75.5,375.5 Z"/></g>
<g><path style="opacity:0.663" fill="#9fdcc8" d="M 96.5,375.5 C 96.0269,376.906 95.0269,377.573 93.5,377.5C 93.9731,376.094 94.9731,375.427 96.5,375.5 Z"/></g>
<g><path style="opacity:0.482" fill="#b4e3d3" d="M 93.5,377.5 C 92.7377,379.262 91.4044,380.262 89.5,380.5C 90.2623,378.738 91.5956,377.738 93.5,377.5 Z"/></g>
<g><path style="opacity:0.647" fill="#a4dcca" d="M 89.5,380.5 C 89.0269,381.906 88.0269,382.573 86.5,382.5C 86.9731,381.094 87.9731,380.427 89.5,380.5 Z"/></g>
<g><path style="opacity:0.767" fill="#5dc29f" d="M 227.5,376.5 C 227.5,402.167 227.5,427.833 227.5,453.5C 228.116,454.798 228.116,455.798 227.5,456.5C 227.167,456.5 226.833,456.5 226.5,456.5C 226.169,429.661 226.502,402.995 227.5,376.5 Z"/></g>
<g><path style="opacity:0.015" fill="#eff9f6" d="M 230.5,375.5 C 230.217,376.289 229.717,376.956 229,377.5C 228.832,403.003 228.332,428.337 227.5,453.5C 227.5,427.833 227.5,402.167 227.5,376.5C 228.391,375.89 229.391,375.557 230.5,375.5 Z"/></g>
<g><path style="opacity:0.866" fill="#46ae8b" d="M 98.5,373.5 C 98.8333,373.5 99.1667,373.5 99.5,373.5C 99.5,395.833 99.5,418.167 99.5,440.5C 98.8333,418.833 98.1667,397.167 97.5,375.5C 97.8333,374.833 98.1667,374.167 98.5,373.5 Z"/></g>
<g><path style="opacity:0.033" fill="#e8fbf6" d="M 99.5,373.5 C 100.177,395.735 100.843,418.069 101.5,440.5C 100.833,440.5 100.167,440.5 99.5,440.5C 99.5,418.167 99.5,395.833 99.5,373.5 Z"/></g>
<g><path style="opacity:0.125" fill="#d7f2ea" d="M 79.5,387.5 C 78.1667,388.5 78.1667,389.5 79.5,390.5C 76.8333,389.5 76.8333,388.5 79.5,387.5 Z"/></g>
<g><path style="opacity:0.674" fill="#9cd9c4" d="M 82.5,393.5 C 83.1174,393.611 83.6174,393.944 84,394.5C 84.4988,398.486 84.6655,402.486 84.5,406.5C 82.901,406.768 81.5676,406.434 80.5,405.5C 81.675,405.719 82.675,405.386 83.5,404.5C 83.7075,400.915 83.3741,397.248 82.5,393.5 Z"/></g>
<g><path style="opacity:0.322" fill="#c7ece1" d="M 186.5,399.5 C 186.167,399.5 185.833,399.5 185.5,399.5C 184.18,400.942 182.514,401.608 180.5,401.5C 181.429,400.685 182.429,399.852 183.5,399C 184.749,398.26 185.749,398.427 186.5,399.5 Z"/></g>
<g><path style="opacity:0.008" fill="#f4f8f7" d="M 186.5,399.5 C 188.985,400.26 188.985,401.26 186.5,402.5C 186.5,401.5 186.5,400.5 186.5,399.5 Z"/></g>
<g><path style="opacity:0.847" fill="#99dac3" d="M 180.5,401.5 C 179.365,403.213 177.698,403.88 175.5,403.5C 176.93,402.463 178.597,401.796 180.5,401.5 Z"/></g>
<g><path style="opacity:0.67" fill="#98d8c2" d="M 79.5,405.5 C 72.7109,405.201 66.0442,405.868 59.5,407.5C 63.4934,405.431 67.8268,404.098 72.5,403.5C 74.9823,404.067 77.3157,404.734 79.5,405.5 Z"/></g>
<g><path style="opacity:0.749" fill="#9fdec8" d="M 175.5,403.5 C 173.162,405.04 170.495,405.706 167.5,405.5C 169.905,404.232 172.572,403.565 175.5,403.5 Z"/></g>
<g><path style="opacity:0.612" fill="#95d6bf" d="M 59.5,407.5 C 58.7377,409.262 57.4044,410.262 55.5,410.5C 56.2623,408.738 57.5956,407.738 59.5,407.5 Z"/></g>
<g><path style="opacity:0.965" fill="#7fceb1" d="M 162.5,406.5 C 160.165,409.165 157.165,410.498 153.5,410.5C 156.088,408.375 159.088,407.042 162.5,406.5 Z"/></g>
<g><path style="opacity:1" fill="#34b98b" d="M 469.5,422.5 C 474.671,419.08 480.004,418.747 485.5,421.5C 486.29,422.401 487.29,423.068 488.5,423.5C 489.773,425.713 490.773,428.046 491.5,430.5C 491.5,438.167 491.5,445.833 491.5,453.5C 488.5,453.5 485.5,453.5 482.5,453.5C 482.825,446.313 482.491,439.313 481.5,432.5C 481.5,431.167 480.833,430.5 479.5,430.5C 476.91,427.941 474.243,427.941 471.5,430.5C 470.167,430.5 469.5,431.167 469.5,432.5C 468.883,432.611 468.383,432.944 468,433.5C 467.5,440.158 467.334,446.825 467.5,453.5C 464.5,453.5 461.5,453.5 458.5,453.5C 458.5,438.5 458.5,423.5 458.5,408.5C 461.5,408.5 464.5,408.5 467.5,408.5C 467.173,413.544 467.506,418.544 468.5,423.5C 469.107,423.376 469.44,423.043 469.5,422.5 Z"/></g>
<g><path style="opacity:0.307" fill="#b7e3d5" d="M 244.5,410.5 C 244.5,410.833 244.5,411.167 244.5,411.5C 243.506,421.319 243.173,431.319 243.5,441.5C 242.341,431.342 242.175,421.008 243,410.5C 243.69,409.262 244.19,409.262 244.5,410.5 Z"/></g>
<g><path style="opacity:1" fill="#35ba8c" d="M 244.5,411.5 C 247.167,411.5 249.833,411.5 252.5,411.5C 252.334,420.506 252.5,429.506 253,438.5C 253.278,439.416 253.778,440.082 254.5,440.5C 254.5,440.833 254.5,441.167 254.5,441.5C 254.5,443.5 255.5,444.5 257.5,444.5C 258.492,446.026 259.992,446.693 262,446.5C 263.385,446.486 264.551,446.152 265.5,445.5C 265.833,445.5 266.167,445.5 266.5,445.5C 268.027,445.573 269.027,444.906 269.5,443.5C 269.328,442.508 269.662,441.842 270.5,441.5C 271.222,441.082 271.722,440.416 272,439.5C 272.5,430.173 272.666,420.839 272.5,411.5C 275.5,411.5 278.5,411.5 281.5,411.5C 281.5,421.833 281.5,432.167 281.5,442.5C 281.598,444.553 280.931,446.22 279.5,447.5C 278.167,448.167 277.167,449.167 276.5,450.5C 276.027,451.906 275.027,452.573 273.5,452.5C 271.847,452.66 270.514,453.326 269.5,454.5C 264.13,454.608 258.797,454.275 253.5,453.5C 252.508,453.672 251.842,453.338 251.5,452.5C 251.027,451.094 250.027,450.427 248.5,450.5C 245.528,448.222 243.861,445.222 243.5,441.5C 243.173,431.319 243.506,421.319 244.5,411.5 Z"/></g>
<g><path style="opacity:0.347" fill="#ade4d2" d="M 272.5,410.5 C 272.5,410.833 272.5,411.167 272.5,411.5C 272.666,420.839 272.5,430.173 272,439.5C 271.722,440.416 271.222,441.082 270.5,441.5C 271.096,431.024 271.763,420.691 272.5,410.5 Z"/></g>
<g><path style="opacity:0.287" fill="#b7e4d6" d="M 469.5,422.5 C 469.44,423.043 469.107,423.376 468.5,423.5C 467.506,418.544 467.173,413.544 467.5,408.5C 464.5,408.5 461.5,408.5 458.5,408.5C 458.5,423.5 458.5,438.5 458.5,453.5C 461.5,453.5 464.5,453.5 467.5,453.5C 467.334,446.825 467.5,440.158 468,433.5C 468.383,432.944 468.883,432.611 469.5,432.5C 468.735,439.786 468.235,447.119 468,454.5C 464.73,454.59 461.396,454.59 458,454.5C 457.5,438.837 457.333,423.17 457.5,407.5C 461.167,407.5 464.833,407.5 468.5,407.5C 468.179,412.695 468.513,417.695 469.5,422.5 Z"/></g>
<g><path style="opacity:0.561" fill="#a4ddca" d="M 151.5,411.5 C 150.738,413.262 149.404,414.262 147.5,414.5C 148.262,412.738 149.596,411.738 151.5,411.5 Z"/></g>
<g><path style="opacity:0.552" fill="#9fdcc7" d="M 254.5,440.5 C 253.778,440.082 253.278,439.416 253,438.5C 252.5,429.506 252.334,420.506 252.5,411.5C 249.833,411.5 247.167,411.5 244.5,411.5C 244.5,411.167 244.5,410.833 244.5,410.5C 247.391,409.597 250.391,409.264 253.5,409.5C 253.189,419.695 253.522,430.028 254.5,440.5 Z"/></g>
<g><path style="opacity:0.575" fill="#a1dcc7" d="M 281.5,442.5 C 281.5,432.167 281.5,421.833 281.5,411.5C 278.5,411.5 275.5,411.5 272.5,411.5C 272.5,411.167 272.5,410.833 272.5,410.5C 275.408,409.431 278.408,409.264 281.5,410C 282.357,410.689 283.023,411.522 283.5,412.5C 283.411,422.596 282.744,432.596 281.5,442.5 Z"/></g>
<g><path style="opacity:0.643" fill="#a1d9c7" d="M 53.5,411.5 C 52.9202,413.749 51.5869,415.415 49.5,416.5C 50.0798,414.251 51.4131,412.585 53.5,411.5 Z"/></g>
<g><path style="opacity:0.075" fill="#d0f3e7" d="M 429.5,420.5 C 433.93,419.139 438.263,419.473 442.5,421.5C 438.176,421.073 433.842,420.739 429.5,420.5 Z"/></g>
<g><path style="opacity:0.471" fill="#bee8da" d="M 142.5,419.5 C 142.573,421.027 141.906,422.027 140.5,422.5C 140.427,420.973 141.094,419.973 142.5,419.5 Z"/></g>
<g><path style="opacity:0.286" fill="#c8ede1" d="M 167.5,419.5 C 165.401,420.612 163.067,421.279 160.5,421.5C 162.438,419.837 164.772,419.171 167.5,419.5 Z"/></g>
<g><path style="opacity:0.885" fill="#94d7be" d="M 340.5,421.5 C 335.833,421.5 331.167,421.5 326.5,421.5C 331.184,418.924 335.851,418.924 340.5,421.5 Z"/></g>
<g><path style="opacity:0.515" fill="#a4deca" d="M 355.5,421.5 C 355.5,421.167 355.5,420.833 355.5,420.5C 359.566,420.307 363.566,420.64 367.5,421.5C 367.167,422.167 366.833,422.833 366.5,423.5C 363.079,421.853 359.413,421.187 355.5,421.5 Z"/></g>
<g><path style="opacity:0.884" fill="#8cd3b9" d="M 382.5,421.5 C 376.911,421.002 371.578,421.668 366.5,423.5C 366.833,422.833 367.167,422.167 367.5,421.5C 372.607,418.911 377.607,418.911 382.5,421.5 Z"/></g>
<g><path style="opacity:0.702" fill="#b3e6d4" d="M 401.5,420.5 C 398.14,420.616 394.807,420.949 391.5,421.5C 394.708,419.469 398.041,419.135 401.5,420.5 Z"/></g>
<g><path style="opacity:1" fill="#35b98c" d="M 319.5,422.5 C 320.668,425.469 322.001,425.802 323.5,423.5C 325.027,423.573 326.027,422.906 326.5,421.5C 331.167,421.5 335.833,421.5 340.5,421.5C 342.404,421.738 343.738,422.738 344.5,424.5C 344.427,426.027 345.094,427.027 346.5,427.5C 346.5,427.833 346.5,428.167 346.5,428.5C 346.5,436.833 346.5,445.167 346.5,453.5C 343.5,453.5 340.5,453.5 337.5,453.5C 337.666,446.159 337.5,438.826 337,431.5C 333.921,428.167 330.754,427.834 327.5,430.5C 326.167,430.5 325.5,431.167 325.5,432.5C 324.883,432.611 324.383,432.944 324,433.5C 323.5,440.158 323.334,446.825 323.5,453.5C 320.5,453.5 317.5,453.5 314.5,453.5C 314.666,446.492 314.5,439.492 314,432.5C 313.578,430.574 312.411,429.574 310.5,429.5C 308.833,429.5 307.167,429.5 305.5,429.5C 303.973,429.427 302.973,430.094 302.5,431.5C 301.778,431.918 301.278,432.584 301,433.5C 300.5,440.158 300.334,446.825 300.5,453.5C 297.5,453.5 294.5,453.5 291.5,453.5C 291.5,442.833 291.5,432.167 291.5,421.5C 294.167,421.5 296.833,421.5 299.5,421.5C 299.694,425.005 300.694,425.338 302.5,422.5C 308.147,418.605 313.814,418.605 319.5,422.5 Z"/></g>
<g><path style="opacity:1" fill="#36ba8c" d="M 401.5,420.5 C 402.959,420.433 404.292,420.766 405.5,421.5C 406.29,422.401 407.29,423.068 408.5,423.5C 409.32,425.14 410.153,426.807 411,428.5C 411.5,436.827 411.666,445.16 411.5,453.5C 408.5,453.5 405.5,453.5 402.5,453.5C 402.825,446.313 402.491,439.313 401.5,432.5C 401.5,431.167 400.833,430.5 399.5,430.5C 398.508,430.672 397.842,430.338 397.5,429.5C 395.32,428.206 393.32,428.539 391.5,430.5C 391.068,431.71 390.401,432.71 389.5,433.5C 388.509,439.979 388.176,446.646 388.5,453.5C 385.5,453.5 382.5,453.5 379.5,453.5C 379.666,446.825 379.5,440.158 379,433.5C 378.617,432.944 378.117,432.611 377.5,432.5C 376.694,431.272 375.694,430.272 374.5,429.5C 372.32,428.206 370.32,428.539 368.5,430.5C 368.5,431.167 368.167,431.5 367.5,431.5C 366.883,431.611 366.383,431.944 366,432.5C 365.5,439.492 365.334,446.492 365.5,453.5C 362.167,453.5 358.833,453.5 355.5,453.5C 355.5,442.833 355.5,432.167 355.5,421.5C 359.413,421.187 363.079,421.853 366.5,423.5C 371.578,421.668 376.911,421.002 382.5,421.5C 384.491,426.032 386.824,426.365 389.5,422.5C 389.842,421.662 390.508,421.328 391.5,421.5C 394.807,420.949 398.14,420.616 401.5,420.5 Z"/></g>
<g><path style="opacity:1" fill="#46be93" d="M 429.5,420.5 C 433.842,420.739 438.176,421.073 442.5,421.5C 444.404,421.738 445.738,422.738 446.5,424.5C 447.072,425.973 447.905,427.307 449,428.5C 449.5,436.827 449.666,445.16 449.5,453.5C 446.5,453.5 443.5,453.5 440.5,453.5C 440.655,450.147 439.988,449.814 438.5,452.5C 438.5,453.167 438.167,453.5 437.5,453.5C 433.881,454.244 430.215,454.577 426.5,454.5C 425.209,454.737 424.209,454.404 423.5,453.5C 422.738,451.738 421.404,450.738 419.5,450.5C 418.028,448.883 417.361,446.883 417.5,444.5C 417.511,442.955 417.844,441.622 418.5,440.5C 419.906,440.027 420.573,439.027 420.5,437.5C 421.429,436.685 422.429,435.852 423.5,435C 428.956,434.055 434.289,433.222 439.5,432.5C 439.5,430.5 438.5,429.5 436.5,429.5C 435.036,428.84 433.369,428.507 431.5,428.5C 428.02,428.582 424.687,429.248 421.5,430.5C 420.513,428.527 419.513,426.527 418.5,424.5C 418.957,423.702 419.624,423.369 420.5,423.5C 422.027,423.573 423.027,422.906 423.5,421.5C 425.265,420.539 427.265,420.205 429.5,420.5 Z M 430.5,447.5 C 430.167,446.5 429.5,445.833 428.5,445.5C 428.33,444.178 428.663,443.011 429.5,442C 432.817,441.502 436.15,441.335 439.5,441.5C 438.494,446.187 435.494,448.187 430.5,447.5 Z"/></g>
<g><path style="opacity:0.5" fill="#abdece" d="M 169.5,419.5 C 170.209,418.596 171.209,418.263 172.5,418.5C 173.59,421.985 173.59,425.319 172.5,428.5C 172.405,426.103 172.071,423.603 171.5,421C 171.164,419.97 170.497,419.47 169.5,419.5 Z"/></g>
<g><path style="opacity:0.004" fill="#dcf3eb" d="M 319.5,422.5 C 320.833,422.833 322.167,423.167 323.5,423.5C 322.001,425.802 320.668,425.469 319.5,422.5 Z"/></g>
<g><path style="opacity:0.729" fill="#95d5bf" d="M 326.5,421.5 C 326.027,422.906 325.027,423.573 323.5,423.5C 323.973,422.094 324.973,421.427 326.5,421.5 Z"/></g>
<g><path style="opacity:0.004" fill="#bfe7d8" d="M 382.5,421.5 C 384.17,421.751 385.67,422.418 387,423.5C 387.671,422.748 388.504,422.414 389.5,422.5C 386.824,426.365 384.491,426.032 382.5,421.5 Z"/></g>
<g><path style="opacity:0.031" fill="#e9f9f4" d="M 405.5,421.5 C 407.179,421.285 408.179,421.952 408.5,423.5C 407.29,423.068 406.29,422.401 405.5,421.5 Z"/></g>
<g><path style="opacity:0.776" fill="#94d5be" d="M 423.5,421.5 C 423.027,422.906 422.027,423.573 420.5,423.5C 420.973,422.094 421.973,421.427 423.5,421.5 Z"/></g>
<g><path style="opacity:0.055" fill="#e3f6f0" d="M 485.5,421.5 C 487.179,421.285 488.179,421.952 488.5,423.5C 487.29,423.068 486.29,422.401 485.5,421.5 Z"/></g>
<g><path style="opacity:0.004" fill="#e4f6f0" d="M 488.5,423.5 C 489.5,423.5 490.5,423.5 491.5,423.5C 491.674,425.861 492.007,428.194 492.5,430.5C 492.167,430.5 491.833,430.5 491.5,430.5C 490.773,428.046 489.773,425.713 488.5,423.5 Z"/></g>
<g><path style="opacity:0.075" fill="#cbebe1" d="M 157.5,424.5 C 156.833,425.833 155.833,426.833 154.5,427.5C 154.5,425.5 155.5,424.5 157.5,424.5 Z"/></g>
<g><path style="opacity:0.454" fill="#9bdbc5" d="M 302.5,422.5 C 300.694,425.338 299.694,425.005 299.5,421.5C 296.833,421.5 294.167,421.5 291.5,421.5C 291.5,432.167 291.5,442.833 291.5,453.5C 294.5,453.5 297.5,453.5 300.5,453.5C 300.5,453.833 300.5,454.167 300.5,454.5C 297.432,454.52 294.265,454.52 291,454.5C 290.5,443.172 290.333,431.838 290.5,420.5C 294.742,420.151 298.742,420.817 302.5,422.5 Z"/></g>
<g><path style="opacity:0.665" fill="#7dccb3" d="M 80.5,419.5 C 82.0174,419.511 83.1841,420.177 84,421.5C 84.82,428.014 84.6533,434.347 83.5,440.5C 83.5,435.167 83.5,429.833 83.5,424.5C 82.925,422.589 81.925,420.922 80.5,419.5 Z"/></g>
<g><path style="opacity:0.192" fill="#c7ede0" d="M 344.5,424.5 C 345.906,424.973 346.573,425.973 346.5,427.5C 345.094,427.027 344.427,426.027 344.5,424.5 Z"/></g>
<g><path style="opacity:0.012" fill="#f3f8f7" d="M 355.5,420.5 C 355.5,420.833 355.5,421.167 355.5,421.5C 355.5,432.167 355.5,442.833 355.5,453.5C 355.5,453.833 355.5,454.167 355.5,454.5C 354.522,454.189 353.855,453.522 353.5,452.5C 354.145,441.705 354.812,431.038 355.5,420.5 Z"/></g>
<g><path style="opacity:0.267" fill="#b2ead8" d="M 46.5,421.5 C 46.3259,423.861 45.9926,426.194 45.5,428.5C 45.1667,428.5 44.8333,428.5 44.5,428.5C 44.4095,425.848 45.0762,423.515 46.5,421.5 Z"/></g>
<g><path style="opacity:0.239" fill="#c8e8dd" d="M 61.5,426.5 C 61.2041,428.403 60.5375,430.07 59.5,431.5C 59.1201,429.302 59.7868,427.635 61.5,426.5 Z"/></g>
<g><path style="opacity:0.298" fill="#bce7d9" d="M 374.5,429.5 C 372.5,429.833 370.5,430.167 368.5,430.5C 370.32,428.539 372.32,428.206 374.5,429.5 Z"/></g>
<g><path style="opacity:0.361" fill="#b8e6d7" d="M 397.5,429.5 C 395.5,429.833 393.5,430.167 391.5,430.5C 393.32,428.539 395.32,428.206 397.5,429.5 Z"/></g>
<g><path style="opacity:0.306" fill="#c0e8da" d="M 479.5,430.5 C 476.863,429.37 474.197,429.37 471.5,430.5C 474.243,427.941 476.91,427.941 479.5,430.5 Z"/></g>
<g><path style="opacity:0.357" fill="#cceee3" d="M 436.5,429.5 C 438.5,429.5 439.5,430.5 439.5,432.5C 438.167,431.833 437.167,430.833 436.5,429.5 Z"/></g>
<g><path style="opacity:0.188" fill="#b9eada" d="M 140.5,422.5 C 140.57,426.425 139.903,430.091 138.5,433.5C 138.43,429.575 139.097,425.909 140.5,422.5 Z"/></g>
<g><path style="opacity:0.007" fill="#f5f7f6" d="M 186.5,403.5 C 187.967,420.987 188.467,438.653 188,456.5C 187.329,457.252 186.496,457.586 185.5,457.5C 185.5,457.167 185.5,456.833 185.5,456.5C 186.497,439.008 186.83,421.341 186.5,403.5 Z"/></g>
<g><path style="opacity:0.012" fill="#daf2ea" d="M 305.5,429.5 C 305.027,430.906 304.027,431.573 302.5,431.5C 302.973,430.094 303.973,429.427 305.5,429.5 Z"/></g>
<g><path style="opacity:0.02" fill="#dcf4eb" d="M 327.5,430.5 C 327.167,431.5 326.5,432.167 325.5,432.5C 325.5,431.167 326.167,430.5 327.5,430.5 Z"/></g>
<g><path style="opacity:0.588" fill="#b6e2d3" d="M 399.5,430.5 C 400.833,430.5 401.5,431.167 401.5,432.5C 400.5,432.167 399.833,431.5 399.5,430.5 Z"/></g>
<g><path style="opacity:0.012" fill="#e5f5f0" d="M 436.5,429.5 C 432.16,428.943 427.826,429.61 423.5,431.5C 422.584,431.457 421.917,431.124 421.5,430.5C 424.687,429.248 428.02,428.582 431.5,428.5C 433.369,428.507 435.036,428.84 436.5,429.5 Z"/></g>
<g><path style="opacity:0.482" fill="#beeadc" d="M 479.5,430.5 C 480.833,430.5 481.5,431.167 481.5,432.5C 480.5,432.167 479.833,431.5 479.5,430.5 Z"/></g>
<g><path style="opacity:0.031" fill="#ddf4ed" d="M 471.5,430.5 C 471.167,431.5 470.5,432.167 469.5,432.5C 469.5,431.167 470.167,430.5 471.5,430.5 Z"/></g>
<g><path style="opacity:0.077" fill="#e5f9f3" d="M 446.5,424.5 C 448.074,424.937 449.241,425.937 450,427.5C 450.824,436.676 450.657,445.676 449.5,454.5C 449.5,454.167 449.5,453.833 449.5,453.5C 449.666,445.16 449.5,436.827 449,428.5C 447.905,427.307 447.072,425.973 446.5,424.5 Z"/></g>
<g><path style="opacity:0.627" fill="#a1dfca" d="M 491.5,430.5 C 491.833,430.5 492.167,430.5 492.5,430.5C 492.5,438.5 492.5,446.5 492.5,454.5C 488.878,454.868 485.378,454.868 482,454.5C 481.5,447.174 481.334,439.841 481.5,432.5C 482.491,439.313 482.825,446.313 482.5,453.5C 485.5,453.5 488.5,453.5 491.5,453.5C 491.5,445.833 491.5,438.167 491.5,430.5 Z"/></g>
<g><path style="opacity:0.069" fill="#ddf6ee" d="M 337.5,453.5 C 337.5,453.833 337.5,454.167 337.5,454.5C 336.671,447.345 336.171,440.011 336,432.5C 333.624,429.648 330.791,428.982 327.5,430.5C 330.754,427.834 333.921,428.167 337,431.5C 337.5,438.826 337.666,446.159 337.5,453.5 Z"/></g>
<g><path style="opacity:0.476" fill="#9bd8c4" d="M 325.5,432.5 C 324.6,437.772 324.267,443.105 324.5,448.5C 324.5,449.5 324.5,450.5 324.5,451.5C 324.5,451.833 324.5,452.167 324.5,452.5C 324.5,452.833 324.5,453.167 324.5,453.5C 324.217,454.289 323.717,454.956 323,455.5C 319.962,454.643 317.129,454.31 314.5,454.5C 314.5,454.167 314.5,453.833 314.5,453.5C 317.5,453.5 320.5,453.5 323.5,453.5C 323.334,446.825 323.5,440.158 324,433.5C 324.383,432.944 324.883,432.611 325.5,432.5 Z"/></g>
<g><path style="opacity:0.198" fill="#c2e8dc" d="M 389.5,433.5 C 389.189,440.09 389.522,446.59 390.5,453C 389.667,453.833 388.833,454.667 388,455.5C 385.534,454.212 383.034,454.212 380.5,455.5C 379.478,455.145 378.811,454.478 378.5,453.5C 378.833,453.5 379.167,453.5 379.5,453.5C 382.5,453.5 385.5,453.5 388.5,453.5C 388.176,446.646 388.509,439.979 389.5,433.5 Z"/></g>
<g><path style="opacity:0.162" fill="#c8f3e5" d="M 302.5,431.5 C 301.931,439.312 301.264,446.979 300.5,454.5C 300.5,454.167 300.5,453.833 300.5,453.5C 300.334,446.825 300.5,440.158 301,433.5C 301.278,432.584 301.778,431.918 302.5,431.5 Z"/></g>
<g><path style="opacity:0.116" fill="#d4f1e7" d="M 310.5,429.5 C 312.411,429.574 313.578,430.574 314,432.5C 314.5,439.492 314.666,446.492 314.5,453.5C 314.5,453.833 314.5,454.167 314.5,454.5C 313.671,447.679 313.171,440.679 313,433.5C 312.338,432.016 311.504,430.683 310.5,429.5 Z"/></g>
<g><path style="opacity:0.593" fill="#97d8c3" d="M 346.5,428.5 C 347.195,436.371 347.862,444.371 348.5,452.5C 348,453.5 347.5,454.5 347,455.5C 343.686,454.711 340.519,454.378 337.5,454.5C 337.5,454.167 337.5,453.833 337.5,453.5C 340.5,453.5 343.5,453.5 346.5,453.5C 346.5,445.167 346.5,436.833 346.5,428.5 Z"/></g>
<g><path style="opacity:0.032" fill="#eafaf5" d="M 367.5,431.5 C 366.216,438.697 366.216,445.864 367.5,453C 366.956,453.717 366.289,454.217 365.5,454.5C 365.5,454.167 365.5,453.833 365.5,453.5C 365.334,446.492 365.5,439.492 366,432.5C 366.383,431.944 366.883,431.611 367.5,431.5 Z"/></g>
<g><path style="opacity:0.585" fill="#a0dbc6" d="M 377.5,432.5 C 378.117,432.611 378.617,432.944 379,433.5C 379.5,440.158 379.666,446.825 379.5,453.5C 379.167,453.5 378.833,453.5 378.5,453.5C 378.696,446.658 378.363,439.658 377.5,432.5 Z"/></g>
<g><path style="opacity:0.253" fill="#c3e8dd" d="M 408.5,423.5 C 409.735,423.721 410.735,424.388 411.5,425.5C 412.665,435.149 412.832,444.816 412,454.5C 408.73,454.59 405.396,454.59 402,454.5C 401.5,447.174 401.334,439.841 401.5,432.5C 402.491,439.313 402.825,446.313 402.5,453.5C 405.5,453.5 408.5,453.5 411.5,453.5C 411.666,445.16 411.5,436.827 411,428.5C 410.153,426.807 409.32,425.14 408.5,423.5 Z"/></g>
<g><path style="opacity:0.325" fill="#b8e7d7" d="M 420.5,437.5 C 420.573,439.027 419.906,440.027 418.5,440.5C 418.427,438.973 419.094,437.973 420.5,437.5 Z"/></g>
<g><path style="opacity:0.449" fill="#b4e4d3" d="M 83.5,424.5 C 83.5,429.833 83.5,435.167 83.5,440.5C 75.5,441.833 67.5,441.833 59.5,440.5C 67.1667,440.5 74.8333,440.5 82.5,440.5C 82.1786,434.974 82.5119,429.64 83.5,424.5 Z"/></g>
<g><path style="opacity:0.655" fill="#abe1cf" d="M 254.5,441.5 C 255.833,442.167 256.833,443.167 257.5,444.5C 255.5,444.5 254.5,443.5 254.5,441.5 Z"/></g>
<g><path style="opacity:0.58" fill="#ace2d1" d="M 269.5,443.5 C 269.027,444.906 268.027,445.573 266.5,445.5C 266.973,444.094 267.973,443.427 269.5,443.5 Z"/></g>
<g><path style="opacity:0.271" fill="#a8dfce" d="M 257.5,444.5 C 260.096,445.265 262.763,445.599 265.5,445.5C 264.551,446.152 263.385,446.486 262,446.5C 259.992,446.693 258.492,446.026 257.5,444.5 Z"/></g>
<g><path style="opacity:0.541" fill="#b9e7d7" d="M 428.5,445.5 C 429.5,445.833 430.167,446.5 430.5,447.5C 429.167,447.5 428.5,446.833 428.5,445.5 Z"/></g>
<g><path style="opacity:0.004" fill="#f5f8f7" d="M 324.5,448.5 C 327.048,450.296 327.048,451.962 324.5,453.5C 324.5,453.167 324.5,452.833 324.5,452.5C 325.833,452.167 325.833,451.833 324.5,451.5C 324.5,450.5 324.5,449.5 324.5,448.5 Z"/></g>
<g><path style="opacity:0.004" fill="#daf3eb" d="M 279.5,447.5 C 279.5,449.5 278.5,450.5 276.5,450.5C 277.167,449.167 278.167,448.167 279.5,447.5 Z"/></g>
<g><path style="opacity:0.765" fill="#a3ddc9" d="M 419.5,450.5 C 421.404,450.738 422.738,451.738 423.5,453.5C 421.596,453.262 420.262,452.262 419.5,450.5 Z"/></g>
<g><path style="opacity:0.231" fill="#c5ede0" d="M 248.5,450.5 C 250.027,450.427 251.027,451.094 251.5,452.5C 249.973,452.573 248.973,451.906 248.5,450.5 Z"/></g>
<g><path style="opacity:0.051" fill="#d1f2e8" d="M 440.5,453.5 C 439.833,453.167 439.167,452.833 438.5,452.5C 439.988,449.814 440.655,450.147 440.5,453.5 Z"/></g>
<g><path style="opacity:0.024" fill="#dbf3eb" d="M 273.5,452.5 C 272.713,454.104 271.38,454.771 269.5,454.5C 270.514,453.326 271.847,452.66 273.5,452.5 Z"/></g>
<g><path style="opacity:0.499" fill="#abdccd" d="M 355.5,453.5 C 358.833,453.5 362.167,453.5 365.5,453.5C 365.5,453.833 365.5,454.167 365.5,454.5C 362.105,454.577 358.771,454.577 355.5,454.5C 355.5,454.167 355.5,453.833 355.5,453.5 Z"/></g>
<g><path style="opacity:0.492" fill="#a6daca" d="M 440.5,453.5 C 443.5,453.5 446.5,453.5 449.5,453.5C 449.5,453.833 449.5,454.167 449.5,454.5C 447.724,454.341 445.724,454.675 443.5,455.5C 442.261,455.058 441.261,454.391 440.5,453.5 Z"/></g>
<g><path style="opacity:0.227" fill="#c6ebde" d="M 253.5,453.5 C 258.797,454.275 264.13,454.608 269.5,454.5C 267.527,455.163 265.361,455.496 263,455.5C 259.523,455.672 256.356,455.006 253.5,453.5 Z"/></g>
<g><path style="opacity:0.004" fill="#e8f6f1" d="M 437.5,453.5 C 435.71,454.997 433.544,455.664 431,455.5C 429.293,455.492 427.793,455.158 426.5,454.5C 430.215,454.577 433.881,454.244 437.5,453.5 Z"/></g>
<g><path style="opacity:0.886" fill="#4fb592" d="M 185.5,399.5 C 185.833,399.5 186.167,399.5 186.5,399.5C 186.5,400.5 186.5,401.5 186.5,402.5C 186.5,402.833 186.5,403.167 186.5,403.5C 186.83,421.341 186.497,439.008 185.5,456.5C 138.5,456.5 91.5,456.5 44.5,456.5C 44.5,447.167 44.5,437.833 44.5,428.5C 44.8333,428.5 45.1667,428.5 45.5,428.5C 45.5,437.5 45.5,446.5 45.5,455.5C 92.1667,455.5 138.833,455.5 185.5,455.5C 185.5,436.833 185.5,418.167 185.5,399.5 Z"/></g>
<g><path style="opacity:0.454" fill="#a6deca" d="M 153.5,429.5 C 153.026,432.921 153.026,436.255 153.5,439.5C 159.463,440.496 165.463,440.829 171.5,440.5C 171.205,438.265 171.539,436.265 172.5,434.5C 172.5,436.833 172.5,439.167 172.5,441.5C 165.8,441.83 159.134,441.497 152.5,440.5C 150.957,436.538 151.29,432.872 153.5,429.5 Z"/></g>
<g><path style="opacity:0.447" fill="#a5dfcb" d="M 138.5,433.5 C 138.5,436.167 138.5,438.833 138.5,441.5C 125.323,441.829 112.323,441.495 99.5,440.5C 100.167,440.5 100.833,440.5 101.5,440.5C 113.5,440.5 125.5,440.5 137.5,440.5C 137.198,437.941 137.532,435.607 138.5,433.5 Z"/></g>
<g><path style="opacity:0.101" fill="#ddf9ef" d="M 44.5,428.5 C 44.5,437.833 44.5,447.167 44.5,456.5C 91.5,456.5 138.5,456.5 185.5,456.5C 185.5,456.833 185.5,457.167 185.5,457.5C 138.167,457.5 90.8333,457.5 43.5,457.5C 43.1729,447.652 43.5062,437.986 44.5,428.5 Z"/></g>
</svg>
